<?xml version="1.0" standalone="no"?>
<!DOCTYPE svg PUBLIC "-//W3C//DTD SVG 1.1//EN" "http://www.w3.org/Graphics/SVG/1.1/DTD/svg11.dtd" >
<svg xmlns="http://www.w3.org/2000/svg" xmlns:xlink="http://www.w3.org/1999/xlink" version="1.1">
<metadata></metadata>
<defs>
<font id="raslani_sanguinar_kaeserRg" horiz-adv-x="1014" >
<font-face units-per-em="2048" ascent="1638" descent="-410" />
<missing-glyph horiz-adv-x="611" />
<glyph horiz-adv-x="0" />
<glyph unicode="&#xd;" horiz-adv-x="508" />
<glyph unicode=" "  horiz-adv-x="611" />
<glyph unicode="&#x09;" horiz-adv-x="611" />
<glyph unicode="&#xa0;" horiz-adv-x="611" />
<glyph unicode="!" horiz-adv-x="737" d="M37 244q0 130 142 130l226 33l19 -33l-28 -57l9 -41v-40q0 -14 -56 -33v-32l19 -90l-85 -81q-94 0 -133 98v8l38 65h-19l-75 -16q-57 0 -57 89zM122 911l9 40v25l114 658l9 74l-9 65q0 57 217 57l132 24l29 -8v-114l47 -146l-104 -163l-123 -602h-9l9 -8q-14 -81 -47 -81 h-28l-57 41h-9q-38 -139 -57 -139l-19 25v81l9 8l-9 33h-57q-28 0 -47 130zM207 106h19v32l-19 -16v-16z" />
<glyph unicode="&#x22;" horiz-adv-x="672" d="M101 1500q0 37 20.5 57t59.5 20t60.5 -19.5t21.5 -56.5q0 -8 -4 -34l-62 -359h-30l-62 359q-4 23 -4 33zM413 1500q0 37 20.5 57t59.5 20t60.5 -19.5t21.5 -56.5q0 -8 -4 -34l-62 -359h-30l-62 359q-4 23 -4 33z" />
<glyph unicode="#" horiz-adv-x="1336" d="M117 472l30 98h271l86 290h-295l29 97h295l140 477h93l-141 -477h242l142 477h92l-141 -477h259l-29 -97h-259l-83 -290h279l-30 -98h-280l-140 -472h-92l139 472h-240l-142 -472h-92l140 472h-273zM511 569h242l86 290h-243z" />
<glyph unicode="$" d="M113 1079q0 166 125 271q105 88 266 102v100h73v-102q68 -8 141 -35q10 -6 19 -6q25 0 41 45h50l103 -282h-49q-60 134 -168 179q-74 30 -137 39v-540q241 -93 322.5 -183t81.5 -264q0 -197 -119.5 -300t-284.5 -120v-239h-73v237q-188 3 -266 38q-10 6 -19 6 q-25 0 -41 -45h-50v331h49q50 -183 152.5 -226t174.5 -43v635q-214 67 -299 153q-92 91 -92 249zM219 1139q0 -98 55 -153q52 -54 230 -113v520q-119 -5 -199 -72q-86 -73 -86 -182zM577 45q125 17 211.5 96t86.5 219q0 116 -69 183q-62 59 -229 112v-610z" />
<glyph unicode="%" horiz-adv-x="1610" d="M62 1080q0 100 52 190.5t144.5 139.5t190.5 49t190.5 -49t144.5 -139.5t52 -190.5q0 -99 -50.5 -188.5t-143 -140t-193.5 -50.5q-100 0 -192.5 50.5t-143.5 140t-51 188.5zM202 1128q0 -31 4 -62q13 -92 55.5 -173.5t106.5 -124.5q57 -40 114 -40q7 0 13 1q63 3 115 53 t73 136q13 54 13 111q0 32 -4 65q-12 93 -56 175.5t-107 124.5q-58 38 -115 38h-11q-61 -3 -113 -52t-73 -135q-15 -58 -15 -117zM297 -29l940 1461h84l-938 -1461h-86zM774 359q0 99 52 189.5t144.5 140t190.5 49.5q97 0 190 -49.5t145 -140t52 -189.5q0 -100 -50.5 -189.5 t-143 -139.5t-193.5 -50t-193 50t-143 139.5t-51 189.5zM914 406q0 -31 4 -62q13 -92 55.5 -173.5t106.5 -124.5q59 -39 116 -39h11q63 3 115 53t73 136q13 54 13 111q0 32 -4 65q-12 93 -56 175.5t-107 124.5q-58 38 -115 38h-11q-61 -3 -113 -52t-73 -135 q-15 -58 -15 -117z" />
<glyph unicode="&#x26;" horiz-adv-x="1683" d="M152 520q0 161 76 266.5t225 151.5q-42 61 -62.5 116t-20.5 111q0 105 77 197t182 92q68 0 142 -39q9 -6 18 -6q23 0 38 45h46l96 -281h-46q-55 133 -155 178q-85 37 -141 37q-65 0 -106 -45.5t-41 -117.5q0 -131 102 -267l531 -670q98 146 121 244q17 78 17 130 q0 97 -62 97h-90v50h443v-50h-90q-95 0 -145 -227q-31 -132 -155 -292q109 -136 248 -136h16q143 17 192 128l49 -1l-103 -231h-160q-56 0 -139 25t-167 132q-67 -74 -175 -123.5t-241 -49.5q-229 0 -374.5 150.5t-145.5 385.5zM256 589q0 -91 35.5 -181.5t101.5 -164.5 q72 -83 165 -127t194 -44q88 0 169 33.5t130 90.5l-554 683q-118 0 -179.5 -86t-61.5 -204z" />
<glyph unicode="'" horiz-adv-x="551" d="M-74 881v27q143 75 183 216q64 108 92 347v19l-7 56q8 47 20 47q59 -6 59 -19l6 9h7l6 -9l7 9h6l40 -9l6 9h7l19 -9l73 9q14 0 19 -140q0 -132 -118 -375q-95 -187 -287 -187l-72 -10l-20 10l-40 -10z" />
<glyph unicode="(" horiz-adv-x="758" d="M30 816v8l7 9l-7 8v43l7 9l-7 8l7 43v129l7 9l-7 8q0 246 193 695q26 60 62 60h62l62 9l7 -9l35 9h55q14 0 14 -26q-221 -411 -221 -806l-7 -189q30 -462 83 -532q0 -103 228 -326l20 -35v-8q-26 -38 -186 -112q-32 -51 -48 -51q-210 210 -235 326q-90 127 -124 583z" />
<glyph unicode=")" horiz-adv-x="758" d="M140 1771q23 17 255 52q31 -15 55 -61v-35l-6 -8q200 -531 200 -559l27 -236h-7l7 -9v-157l-7 -78l7 -9l-7 -44v-61l-7 -8l7 -9q-27 -294 -82 -463q-56 -157 -166 -375h-41l-76 -9q-31 17 -90 17h-28l-27 35v9q241 349 241 882v9l7 8l-7 9l7 105v43l-7 53l7 9v8 q0 142 -110 454q-152 351 -152 428z" />
<glyph unicode="*" horiz-adv-x="1024" d="M218 1333q0 17 6 36q11 35 36 53q17 12 34 12q9 0 18 -3q20 -6 74 -62q47 -49 112 -75q-4 71 -37 130q-37 66 -37 84q0 32 23.5 51.5t62.5 19.5q37 0 61.5 -18t24.5 -47q0 -21 -36 -89q-33 -61 -37 -130q66 25 113 75q51 55 69 61q11 3 21 3q18 0 35 -10q26 -17 38 -53 q6 -19 6 -36q0 -15 -4 -28q-10 -30 -38 -38q-6 -2 -19 -2q-25 0 -76 9q-28 5 -55 5q-41 0 -81 -11q44 -55 105 -83q68 -32 79 -47q13 -18 13 -38q0 -9 -2 -17q-8 -30 -39 -53q-29 -22 -59 -22q-1 0 -1 1q-31 0 -48 23q-12 17 -22 94q-10 67 -47 125q-38 -58 -46 -124 q-9 -75 -20 -90q-19 -25 -49 -27h-5q-28 0 -57 21q-30 21 -39 51q-4 10 -4 20q0 17 11 32q13 17 83 51q61 29 105 82q-41 11 -80 11q-27 0 -53 -5q-54 -11 -78 -11q-9 0 -14 2q-30 9 -41 38q-6 13 -6 29z" />
<glyph unicode="+" d="M87 647v140h350v369l1 1h139v-370h349l1 -1v-139h-350v-370h-140v370h-350z" />
<glyph unicode="," horiz-adv-x="648" d="M-66 -274q176 79 226 227q79 114 113 365v20l-8 59q10 49 24 49q73 -6 73 -20l8 10h8l8 -10l8 10h8l49 -10l8 10h8l24 -10l89 10q18 0 24 -148q0 -138 -145 -394q-118 -197 -355 -197l-89 -10l-24 10l-49 -10l-8 10v29z" />
<glyph unicode="-" horiz-adv-x="670" d="M68 682v24l4 4l-4 4l12 68l-4 16q0 40 72 40l48 4l36 -4l16 4l36 -4h48l4 -4l12 8l16 -4l84 4v-4l4 4h12l4 -4l4 4h64q22 0 32 -20l-16 -56l4 -4v-4q-12 -20 -12 -68l8 -8q0 -12 -48 -12v4l-4 -4l-40 8l-12 -4l-136 -4l-4 4h-4l-4 -4l-40 4h-12l-24 -4l-44 8l-96 -4h-8z " />
<glyph unicode="." horiz-adv-x="557" d="M134 35l7 118l-7 111l7 7h7l142 -13l128 13l14 -20v-46l-7 -6l7 -7l-7 -26l7 -78l-7 -53l14 -13v-20q-3 -13 -35 -26l-100 13l-14 -13h-71l-14 -13q-71 0 -71 72z" />
<glyph unicode="/" horiz-adv-x="569" d="M13 -50l541 1484h80l-541 -1484h-80z" />
<glyph unicode="0" d="M0 561l7 8h6l-13 65l7 24l-7 114v8l7 8l-7 8l13 73l-6 8v9q17 121 26 121l-7 9v8l39 138l-6 8q61 252 91 252q20 0 130 170q53 61 130 74l7 -9l254 41q149 0 208 -236q12 -18 39 -227v-57l13 -24v-8l-6 -9l6 -8v-105l7 -49l-7 -49l7 -8l-13 -89l6 -8v-9l-19 -105l6 -8v-8 q-52 -226 -117 -374q-130 -185 -208 -211q-147 -57 -306 -98l-7 -8h-13q-143 0 -195 179q-33 75 -52 187h6q-13 32 -19 138h6zM254 780l7 -8v-8q0 -528 149 -626q111 43 209 341q58 232 58 423l7 8l-7 8v57l-13 154v57l-32 187l6 8l-65 138q-39 33 -58 33 q-183 -262 -183 -317q-71 -262 -71 -423l6 -24l-6 -8h-7zM365 731l6 8v8l-6 25h13v8l-13 16l13 81l-7 9v8l91 219q3 30 27 49h6q26 0 26 -98v-81l26 -114q-45 -113 -85 -276l-6 -8h-13q-29 0 -72 65l7 41v16z" />
<glyph unicode="1" d="M0 734v9q0 19 438 630l167 348l247 57l8 9l8 -9l8 9h16q16 0 24 -56q-96 -297 -151 -527l8 -10v-9l-112 -536l8 -9l-8 -113v-47l-8 -10l8 -28q0 -160 -16 -160l8 -28l-8 -122l8 -29q-23 -25 -135 -37q-6 -24 -152 -57l-8 -9q-31 15 -31 66v47l8 37l-8 29l23 188l-7 9v85 l7 37l-7 10v9q23 226 63 395v19q-20 0 -119 -150q-83 -38 -263 -76z" />
<glyph unicode="2" horiz-adv-x="1288" d="M-15 319l133 243q261 382 578 484q332 109 369 214v19q-134 46 -208 46q-164 0 -417 -242l-38 -9q-22 0 -38 93l10 37q-22 0 -48 233q268 252 408 252l28 9h76l57 -9l9 9h10q322 -61 322 -298q0 -75 -19 -75l10 -9v-9l-10 -121l10 -28q0 -333 -361 -438 q-330 -115 -445 -289q114 -4 114 -19l9 10l190 -65l9 9h10l19 -19l9 10h10l75 -10q67 0 199 149l57 -56v-18q0 -65 -19 -65l10 -10v-46l-10 -10l19 -37l-9 -65l9 -28q0 -119 -142 -177h-114l-360 74h-95q-95 0 -322 -102q-32 0 -104 363z" />
<glyph unicode="3" horiz-adv-x="1154" d="M0 474l54 18q53 0 107 -83l98 -56h9q202 0 446 111q123 85 179 149v9q-61 94 -268 139l-27 10l-9 -10h-36l-53 10l-36 -10l-18 28v19l9 9l-9 9v75q0 46 -18 46l9 46v28l-9 65h9l-9 28q0 28 215 149q2 15 107 55v19l-81 9q-170 0 -553 -111q-45 0 -45 -56h-17l-27 28v19 l35 139v9l-8 139h8l-8 10v46q0 47 490 149l108 9q321 -58 321 -214q-11 -111 -27 -111l9 -9v-10q-25 -33 -36 -222l-44 -93v-10q205 -155 205 -297l-54 -232l9 -9v-19q0 -241 -258 -362q-109 -93 -491 -139q-122 23 -197 93q-33 41 -44 130l-9 9q0 133 -36 242z" />
<glyph unicode="4" horiz-adv-x="1273" d="M-7 491v18q0 55 84 83q0 44 85 120q170 263 253 489q224 343 366 480l28 9q47 -12 47 -28l-19 -230l19 -83q-171 -196 -310 -415l-112 -277v-9h47l122 -10l84 19l9 -9h10l9 9h9l10 -9l66 9h121q25 0 75 138q45 100 122 176h38l28 -28l-9 -9v-10l9 -27l-19 -102l10 -9v-9 l-10 -46l19 -74v-9l-9 -10l9 -9v-9q-159 -247 -159 -332q-26 -21 -94 -194h47v-9l-75 -37l9 -9v-9l-28 -74l19 -19v-9h-19v-18q0 -68 -28 -74q-21 1 -56 92h-19l9 56q0 55 -37 166l18 46l-9 9v9l9 37l-18 28l-47 -9h-132l-37 9l-38 -9h-65q-310 -31 -310 -102h-28 q-84 0 -84 194z" />
<glyph unicode="5" horiz-adv-x="1139" d="M0 450l8 9v9l-8 62q13 44 47 44q108 0 108 -150q62 -62 101 -62l31 9l8 -9h8q75 0 365 168q122 103 124 132q-93 124 -194 124l-8 -9h-8l-7 9l-86 -18l-8 9q0 -14 -147 -44l-8 9q0 -21 -233 -71h-15l-16 27v114l8 9l-8 27q0 194 54 194h16v9l-8 35q6 78 93 230l-23 26 l23 159l-7 44q10 149 46 159h86l31 9l7 -9l39 9h93l8 -9l8 9h8q429 9 473 44q37 0 78 -44v-9q-70 -84 -70 -177l-8 -26h-7l7 -9v-79q0 -24 -101 -44h-101l-46 -18l-8 9h-8l-23 -9v9l-8 -9h-170l-63 -9l-62 9h-62l-8 -27l8 -35q0 -56 -46 -194h7l218 53h8q305 0 411 -274 l8 -62q-41 -94 -55 -167l8 -27l-8 -9h-7l7 -9q0 -333 -333 -494q-77 -71 -226 -97l-7 9l-16 -18h-46q-169 0 -218 177q0 57 -46 79v9h7l-15 79l8 9v9z" />
<glyph unicode="6" horiz-adv-x="1102" d="M0 585q15 224 263 538q621 604 702 604q70 -6 70 -28v-74l-26 -47l8 -9l-17 -121l9 -83q-90 -16 -448 -390h18v-9l35 9q307 -51 307 -306v-19l-18 -56v-9l27 -28l-70 -223q-42 -155 -123 -213q-215 -121 -439 -121h-9l-35 9l-8 -9h-9q-141 54 -176 149l-26 55v112z M158 446l105 -75q255 0 456 168q-50 53 -149 74l-9 -9l-114 18l-8 -9h-9l-27 9l-52 -9l-35 65l9 37q-138 -157 -167 -269z" />
<glyph unicode="7" d="M0 1261q5 72 16 72l-8 9v9q0 273 343 360l110 9l78 -9l101 9l133 -9v-9l24 9l86 -9l7 9l55 -9h70l32 -9l46 18q82 0 180 -135v-18q0 -15 -55 -36l-31 9l-55 -45l-23 9l-47 -126l-273 -369l-235 -325l-249 -414l-102 -189l8 -9v-9l-31 -54h-47q-16 0 -86 342v9q15 0 15 45 q34 2 86 144l399 568q54 44 203 261h-24l-39 -9l-39 9l-179 -9l-32 9l-70 -9h-86q-119 -13 -265 -108h-8z" />
<glyph unicode="8" horiz-adv-x="1176" d="M0 219v57q0 261 136 421q9 28 43 49q0 18 107 122q-71 125 -71 227l7 8v8l-7 24l71 300q0 97 86 178q10 114 29 114h72l28 8l7 -8l36 8q306 0 401 -235q-5 -82 -57 -170v-57l-7 -33l7 -32q0 -121 -244 -316l-7 -8v-8q149 -150 351 -244q93 -46 136 -178l-7 -8v-8l7 -8v-8 q-43 -84 -43 -114l-21 -81l7 -8q0 -157 -165 -219h-752q-150 0 -150 219zM179 341q57 -50 122 -82l7 9l100 -25l7 8l79 -8q315 11 315 41l-21 65l7 8q-13 0 -22 73q-67 0 -215 162q-1 20 -78 57q0 23 -29 40h-7q0 -18 -57 -73q-169 -180 -208 -275zM394 1192q0 -47 100 -138 l272 268q-81 73 -157 89l-8 -8l-71 8l-108 -17l8 -40q-12 0 -29 -73l7 -49l-14 -16v-24z" />
<glyph unicode="9" d="M0 24q8 109 24 128l-8 24h8l-8 8v40l8 32l-8 24q0 57 80 112q18 0 49 -48q86 0 345 151q137 99 298 608l8 8l-8 8v8l48 168l-8 8v79q0 14 -48 40q-193 0 -475 -207q-72 -103 -72 -128v-16l72 -16l89 8h104l129 48l32 -16q-6 -48 -16 -48l8 -8v-8q-40 -87 -56 -224 q-29 -32 -145 -56l-8 -8h-8l-40 8l-97 -16q-241 17 -241 192v16q14 136 24 136l-8 8l49 168l-8 24q85 236 321 351q219 107 354 120q91 0 241 -128q56 -27 56 -40l-8 -56q32 -63 32 -104v-119l-24 -96l8 -8q-49 -295 -386 -839q-108 -113 -152 -128q-11 -73 -354 -208 l-32 -8l-8 8l-24 -24h-89q-41 0 -48 24zM755 607h8l8 24v8h-8l-8 -24v-8zM908 935h8l8 32v8h-8l-8 -32v-8zM932 1007h8l65 264l-9 8v8l9 39v16h-9l-16 -71l8 -8v-8l-56 -240v-8z" />
<glyph unicode=":" horiz-adv-x="557" d="M76 183v4h4l12 -4v-8h-8zM164 324l7 116l-7 109l7 6h6l135 -13l122 13l13 -19v-45l-6 -6l6 -7l-6 -25l6 -77l-6 -52l13 -12v-20q-3 -13 -34 -25l-94 13l-14 -13h-67l-14 -13q-67 0 -67 70zM164 1024l7 116l-7 109l7 6h6l135 -13l122 13l13 -19v-45l-6 -6l6 -7l-6 -25 l6 -77l-6 -52l13 -12v-20q-3 -13 -34 -25l-94 13l-14 -13h-67l-14 -13q-67 0 -67 70z" />
<glyph unicode=";" horiz-adv-x="670" d="M-60 -151q170 72 218 208q77 104 110 334v18l-8 54q10 45 23 45q70 -6 70 -18l8 9h8l8 -9l7 9h8l47 -9l8 9h8l23 -9l86 9q18 0 23 -135q0 -127 -140 -361q-114 -181 -343 -181l-86 -9l-23 9l-47 -9l-8 9v27zM88 291v9h8l23 -9v-18h-15zM260 806l8 163l-8 153l8 9h7 l156 -18l141 18l15 -27v-63l-8 -9l8 -9l-8 -36l8 -109l-8 -72l16 -18v-27q-3 -19 -39 -36l-109 18l-16 -18h-78l-15 -18q-78 0 -78 99z" />
<glyph unicode="&#x3c;" d="M87 674v83l840 484v-167l-625 -359l625 -355v-167z" />
<glyph unicode="=" d="M87 491v140h840v-140h-840zM87 803v140h840v-140h-840z" />
<glyph unicode="&#x3e;" d="M87 193v167l625 355l-625 359v167l840 -484v-83z" />
<glyph unicode="?" horiz-adv-x="1072" d="M0 1436v14q0 116 240 236q176 74 329 74l7 -7l89 14v-7l103 20q260 0 260 -283q0 -116 -89 -243q-11 0 -28 -47q-31 0 -61 -81v-54l-28 -27h-75q-116 -79 -116 -135q-21 -29 -90 -54l-54 -162q-11 -45 -137 -94l-7 7q0 -20 -96 -27q-21 25 -21 47v34l7 7l-7 6v34l7 7 l-7 6q0 203 206 371l212 176q52 41 76 161l-7 7v7l7 27q0 58 -62 67l-7 7l-7 -7h-7q-39 0 -75 47l7 54h-7l-7 7h-7q-138 0 -205 -87l7 -34v-34q-64 -62 -83 -162l-7 -6h-6q-16 0 -21 74l-7 6h-20v-6l20 -54q0 -41 -103 -74l-6 6v7l-7 -7h-7q-89 16 -89 74v7l7 27zM62 1342 l41 40v7q-41 -7 -41 -20v-27zM274 270h7l-7 6v75q0 20 117 33l6 7l21 -7q64 27 130 27l7 -6v-34q0 -149 21 -236q0 -32 -35 -68h-6q-14 0 -14 41q-103 -20 -103 -54q0 -54 -48 -54h-7q-75 7 -75 54l7 34zM631 1598h6l14 13l-7 7h-7zM740 1079h14l7 20l-21 -7v-13zM774 1106 l21 -7v20h-7z" />
<glyph unicode="@" horiz-adv-x="2019" d="M100 508q0 242 124 464.5t345.5 342t456.5 119.5q362 0 609 -230t247 -566q0 -270 -176 -439q-175 -168 -346 -170q-63 1 -100.5 18t-61.5 54q-29 -37 -82 -64.5t-133 -27.5q-144 0 -256.5 100.5t-112.5 233.5q1 87 53 166.5t132.5 115t173.5 49.5q67 16 110 42.5 t43 74.5q-2 69 -41 125t-129 56q-72 0 -121.5 -59t-50.5 -125h-45v159q0 20 72 40q73 20 178 20q109 -2 193.5 -64.5t84.5 -157.5v-589q0 -117 94 -117q185 35 267 191.5t82 382.5q-20 335 -232 540q-197 188 -480 188q-205 0 -392.5 -137.5t-269.5 -355.5 q-67 -178 -67 -361q0 -313 129.5 -511.5t305 -290.5t318.5 -92q274 0 575 208v-75q-263 -184 -571 -184q-240 0 -461 122.5t-343 342t-122 461.5zM753 343q0 -107 64 -194t183 -87q97 5 126 167v476q-54 -63 -154 -83q-83 -10 -151 -80t-68 -199z" />
<glyph unicode="A" horiz-adv-x="1318" d="M0 61l7 9l-7 9v9l236 681q65 156 214 359l243 296l-21 188q-16 0 -29 -126h-14v36q0 197 36 197l-7 27l78 18v-9q109 18 186 54q19 0 57 -358l29 -45l-14 -54q33 -149 128 -439l108 -663h-8l29 -72q-10 -99 -50 -99l21 -107v-18q0 -128 -100 -161h-7q-57 0 -57 143v45 l14 27v27q-30 0 -93 -36l-85 591h-15q-28 -179 -57 -179l-7 9l36 215q-75 0 -93 -45l21 -107q0 -54 -43 -90h-7q-46 0 -71 63l14 116l-14 45q-143 0 -143 -54l-7 -80v-63l-36 -45h-14q-24 0 -51 27h-7l-78 -215l14 -18v-27l-50 -98v-18l29 -63v-27q-28 -72 -101 -72 q-21 33 -28 135l14 45l-7 9l-7 -9h-43q26 -216 57 -216q0 -91 -78 -125h-43q-65 0 -72 143l29 180q-21 0 -36 35zM57 -145l7 -9h15l7 108l-7 9h-8zM536 752q0 -16 43 -45l36 9h43l7 -9q34 18 193 27v18l-36 170h-7q0 -39 -50 -54q-32 15 -50 54v54q0 26 28 80h-7 q-114 -127 -114 -215l-7 -9h-7l-22 18zM1144 -118v-9h7l14 72q-17 0 -21 -63z" />
<glyph unicode="B" horiz-adv-x="1526" d="M-1 242q22 133 22 345l15 19q28 0 132 -103q47 -37 73 -37l81 885h-15l-66 -9v-37q22 -33 22 -93q-25 -75 -81 -75q-44 21 -44 93l8 84q-44 12 -44 28l36 280v46q44 72 521 112q211 -21 345 -75q294 -192 294 -242l29 -130q0 -118 -125 -233q-12 0 -14 -47v-28 q174 -122 220 -214q13 -5 29 -93q37 0 37 -84v-84q0 -75 -73 -149q-44 -146 -44 -270q-40 -112 -74 -112q-88 0 -88 139q-51 -35 -308 -102q-15 -42 -15 -121v-19l22 -168q-25 -158 -154 -158q-88 37 -88 112q0 35 66 177l15 112l-15 37l-139 -19l-30 10h-44q0 -75 -22 -75 l-14 37l7 28q-139 28 -242 75l-8 -9l15 -38q0 -149 -81 -149q-62 0 -80 112l14 149zM197 1193q15 0 15 28v9h-8zM535 373l29 9l37 -9q418 31 418 121l44 140l-7 37h-37l-7 9l-44 -9v-75q0 -46 -37 -83h-37q-58 9 -58 65l7 9l-7 47l14 56q0 49 -154 93h-59q0 -64 -29 -84h-7 l-8 9h-7l7 47v19h-22q-31 0 -36 -355v-46zM593 1146q455 32 455 84q0 65 -190 149h-8l-7 -9l7 -47q0 -76 -80 -102h-37q-37 27 -37 56l22 112l-7 9h-74q-32 0 -44 -252zM703 -326l30 -28h15v9q-30 39 -30 84h-7zM748 1277l29 -10l7 10v9l-7 9h-15zM1291 121h14v19z" />
<glyph unicode="C" horiz-adv-x="1593" d="M-15 865q0 134 133 372q1 50 196 252q0 84 62 84q36 67 321 177l250 37q424 0 587 -242v-19q-94 -243 -94 -326l16 -177q-8 -93 -78 -93q-94 0 -94 112v56q0 113 31 223q-144 84 -266 84h-24v-9l-7 -94h-24l-15 19v84l-32 9q-165 -18 -250 -56l-8 -46l24 -140 q-31 -93 -86 -93h-24q-16 1 -63 93l-93 -121l7 -28l-31 -140v-18h-16q-15 0 -15 74h-8l-8 -37l8 -9l-8 -47v-93q0 -116 94 -215l110 -65q34 -65 78 -65h133l47 -9l8 9l39 -9h109l39 9v-9q139 0 196 167h16l203 -93q86 0 86 -84q-39 -149 -141 -223q-53 0 -94 -233l-47 -19 h-31l-39 47v28l16 74l-149 -28h-16q-19 -84 -31 -84l-16 28v56l-23 -9l-39 9h-55l-8 10l-8 -10l-101 19v-9l23 -112q-8 -112 -78 -112h-24q-72 0 -86 121l32 131q0 43 -219 130l-126 103q0 -122 -70 -122h-23q-71 0 -71 122l31 186q-156 200 -156 373zM188 231h8q24 9 24 56 v9h-8l-24 -56v-9zM627 1172l7 -9h8q16 0 16 28l-8 46q-13 0 -23 -65zM666 -30v-28h7v28h-7zM1331 1060h15l8 65l-8 47h-8l-7 -93v-19z" />
<glyph unicode="D" horiz-adv-x="1720" d="M8 1402q18 30 72 350l27 20l54 -10l305 40q467 0 1005 -499q197 -293 197 -520l-9 -10l9 -50v-30l-9 -10l9 -30l-63 -389l-18 -20h-9q-18 0 -18 60h-9q0 -25 -71 -110q-17 -120 -108 -120q0 -13 -63 -20v-50q0 -55 -45 -80h-36l-36 40l9 10l-9 10v10l9 10v10h-18l-26 -10 v10q-39 -20 -144 -20h-36l-45 -10l18 -110q-18 -60 -72 -60h-9q-89 0 -89 180h-9q-225 18 -225 30l-9 -10l-170 30v-10l27 -60v-40q-59 -110 -126 -110h-54q-44 22 -44 100v30l26 130h-9q-89 17 -89 40v50l9 10l-9 10v80l9 10l-9 10v39q33 122 63 160h80l45 10l-18 260v60 l9 10l-9 10v10l9 90l-9 10q54 265 54 439h-9l-99 -20l45 -129v-20q-51 -150 -116 -150q-90 36 -90 110v60l27 119h-9q-63 0 -63 40zM116 1153l9 -10h18l9 60q-19 -5 -36 -50zM627 713q11 -190 36 -190h36l9 10h9l9 -10v-20l-54 -80v-20l287 -20h117q251 0 305 440 q-68 144 -90 150v-50l18 -80q0 -60 -72 -120h-36q-80 0 -80 120l53 210q0 27 -107 110h-27q0 -30 -18 -30h-9l-18 20v40l9 10v10l-81 40q0 -81 -36 -100h-9q-80 19 -80 90l27 60l-135 49l-18 -99l9 -10l-54 -360l9 -40zM851 -116l18 -20h9q0 30 18 30l-9 30zM1210 823l9 -10 h9l9 10v70q-18 0 -27 -70z" />
<glyph unicode="E" horiz-adv-x="1646" d="M-29 1247v41l74 151l-10 10v131q0 71 120 71l239 20l9 -10h9l37 10v-10l9 10h101l184 10v-10l138 20v-10l138 20v-10l257 41l28 10h9l9 -10h9q0 27 129 40l9 -50l-18 -41l9 -30l-19 -30l10 -10v-10l-19 -111l9 -71q0 -51 -156 -81q28 -203 28 -434q0 -100 -111 -110 q-82 37 -82 110l73 384v40l-174 -20v-30q27 -42 27 -111q0 -101 -101 -101q-50 0 -64 111l9 50q-7 61 -18 61q-184 0 -184 -41q-14 -40 -28 -40h-27v10l9 51h-83v-31l-9 -40l18 -121l221 30l9 -10h9l28 10l18 -20l-37 -262v-91q0 -20 -55 -20l10 -10v-41q0 -77 -37 -90h-46 l-9 10l-10 -10h-9q-27 6 -27 80v20l9 11v10h-46q-28 0 -28 -111v-71q0 -37 28 -60l9 10h156l157 10v-10l9 10h331q157 0 321 60q37 -10 37 -40l-119 -464l27 -20l-27 -111l9 -41l-9 -10v-10q18 -30 27 -121q-44 -131 -156 -131q-92 49 -92 71v50l92 262l-9 10v11l9 30 l-19 70l-385 -10v10l-37 -10v-30l18 -71l-73 -40q-74 27 -74 51v10l18 80h-156l-46 -10l9 -10l-9 -50l9 -51q-13 -40 -27 -40q-28 0 -28 131v20h-9q-174 0 -174 -40q21 -39 36 -151q0 -43 -101 -122q-110 0 -110 91v10l28 172h-166l-27 30l18 40l-9 101v31q2 100 18 100 l-9 11v30q0 20 73 30v-10l92 30l10 111l-10 172l-9 10h-18q-18 -126 -46 -131h-9v121q0 20 -28 20l-9 10v10q64 182 73 272l19 21l-9 10q21 0 46 212h-56l-9 -71l19 -91q-39 -40 -74 -40q-73 0 -73 101l9 30q-12 60 -28 60h-55zM1230 955h9v30h-9v-30zM1395 -235h19v20h9 l-9 40h-9z" />
<glyph unicode="F" horiz-adv-x="1750" d="M8 1258l30 213l-10 43h10l-10 11v74q0 75 132 75l363 43v-11l243 32v-11l80 22l11 -11l50 11h121l71 10v-10l30 10q403 0 546 43h10l20 -21l-10 -11l10 -11l-20 -117l10 -11v-10q-20 -54 -20 -192v-43q-75 -115 -142 -277l-10 -11h-40q-91 14 -91 96v128l10 11v10l-51 11 l-40 -11l-10 11l-263 -21l10 -54q-66 -64 -111 -64h-30l-40 43v43l10 10v11h-10q-162 -7 -162 -32v-11l10 -32l-20 -202h10q283 -19 283 -54v-21l-10 -43l10 -10v-11l-41 -182q0 -32 31 -32l10 -10v-11q-7 -139 -41 -139l-20 86h-50l10 -64q0 -48 -81 -86q-30 0 -61 64 l21 86l-11 10h-70l-10 -10h-10l10 -11l-21 -117l11 -11q-20 -384 -71 -384l20 -309q-43 -107 -111 -107h-40q-51 27 -51 85v32l51 267h-11q-60 -3 -60 -21l20 -96q-24 -96 -91 -96h-20q-30 8 -51 74l41 107l-41 53v11l31 512q-51 14 -51 32l20 256v75q0 55 51 75q7 85 20 85 l-10 11l10 53v75h-10q-73 -2 -101 -32l20 -64q0 -43 -70 -96h-11q-70 0 -70 74v32l10 54h-51zM321 -44v-42l20 21v21h-20zM1452 1162h41l10 11h10l-10 74l-51 -74v-11z" />
<glyph unicode="G" horiz-adv-x="1742" d="M23 435l9 252l-9 118q70 331 319 658q321 324 639 324h173l9 -9l8 9l320 -54l26 -54v-9l-26 -126l34 -136q0 -144 -112 -144q-78 28 -78 90l9 45h-9l-155 18q0 -54 -26 -54q-17 0 -26 63l-8 -9h-9l-26 9l-78 -9h-60v-72q-11 -81 -78 -81q-39 18 -43 36v54l17 27v9 q-250 -93 -250 -270q0 -202 -78 -252q-86 22 -86 36q-29 0 -61 -145l9 -207v-18l-9 -36q31 -93 95 -162l9 9h26l9 -9q491 72 699 171q112 92 112 207l-43 9h-43q-20 -90 -43 -90h-9l-9 9h-8l8 63v9l-17 18h-17l-43 -126q-24 -36 -61 -36q-52 19 -52 72l18 81q-95 7 -95 45 q57 307 77 307h61l388 -9v-9l9 9h35l34 -9l26 9l43 -9l78 9q43 -13 43 -63q-17 0 -35 -90v-9l18 -27l-104 -676h17v-9l9 9h17q26 0 26 -36q-32 -84 -69 -100l35 -117q-40 -117 -104 -117q0 -18 -60 -18h-35l-34 36v45q5 54 25 54l-25 81v27l8 9v9l-34 9l-9 -9h-60l-52 63 q-16 0 -104 -135l-43 -9q-27 0 -86 54l-87 9q-181 -22 -181 -72q-61 -87 -78 -90h-34q-44 67 -397 171q-109 59 -190 244zM498 958h17v36h-17v-36zM653 2v-27l18 18v9h-18zM1068 74l34 -18l18 36v9h-9l-43 -9v-18zM1448 1381l17 -18v27h-17v-9zM1508 29h9v18h-9v-18z" />
<glyph unicode="H" horiz-adv-x="1526" d="M0 69v73l9 10l-9 11v105l9 10l-9 11l9 52v126l8 10l-8 10q43 621 155 1183v32l-9 73l26 21h267l9 -10l8 10h18l17 -21v-52q0 -134 -69 -450h17v-11l9 11h129l9 -11l8 11h9l293 -53l9 11h86q14 6 86 398l60 188h9q155 -31 302 -31l17 -32q-60 -255 -60 -450 q-20 -135 -78 -251l-17 -126l34 -188q-77 -87 -77 -346v-10h-9l9 -11l-9 -52v-31l9 -32q-24 -534 -69 -534h-17q-16 0 -26 94l-35 -10l9 -52v-53l-43 -52h-43q-24 0 -52 126q-42 31 -86 31l-9 10v11l26 356l-9 10l9 53v52l17 523q-86 0 -86 -136q-12 -94 -34 -94l-18 21v189 q0 24 -60 31v-11q-18 -62 -35 -62t-25 83l-95 11q-12 -168 -52 -168q-69 0 -69 105v11l9 52h-18v10q-94 0 -94 -83l-26 -430l34 -157q-51 -119 -51 -167q12 -1 43 -136q-21 -241 -130 -241h-34q-60 37 -60 84l25 115l-8 10v11l8 10v11q-2 43 -120 125q0 20 -52 53zM95 48 q0 -24 60 -42v10q0 42 -34 42v11l-26 -11v-10zM207 -266v-21h17v-11l26 11v10z" />
<glyph unicode="I" horiz-adv-x="864" d="M15 1405q9 107 44 182l-9 9v10q23 28 35 143q120 38 428 38h26l9 -10l8 10h201q47 0 61 -38v-38l-8 -10v-9l17 -19q-49 -229 -70 -258l26 -210v-57l-8 -10v-9l8 -10l-104 -66q-70 28 -70 114l17 19l-9 10v19q44 55 44 114l-9 76h-35q-26 0 -43 -400l9 -29l-9 -9l9 -67 v-181q0 -130 17 -210l-9 -29q9 -76 26 -76l105 19l26 -38l-17 -67l35 -38v-10l-44 -200l-52 -67l35 -124q-22 -57 -79 -57q-61 33 -61 76l18 77l-62 38l-78 -19l-70 47l-9 -9h-96q0 -105 -96 -105l-9 -10h-8q-55 0 -88 96q-26 0 -26 19q13 95 26 95l-8 10v9q47 229 96 229 l104 19l-17 544v200l17 267h-43v-28q0 -73 -35 -86h-44q-27 10 -61 95z" />
<glyph unicode="J" horiz-adv-x="1385" d="M-8 782q0 188 131 253h8q171 0 236 -187l17 -75l-26 -112l9 -10v-9q-17 -43 -35 -47l-44 9l-35 -84q23 -57 270 -196l114 -38q75 0 104 234l-8 10l17 252l-9 169l-35 -28q-69 0 -69 140q-96 0 -96 103v19l35 150v38q0 16 -79 28l-8 -10h-27l-26 10v-10q-30 -84 -113 -84 h-26q-106 56 -166 56q-38 0 -52 47l-43 -9l-44 28l17 121l-8 10l26 140l-9 10q0 65 61 65l96 10v-10l9 10l392 -19v-9l8 9h253l244 9l78 -9l122 28q40 -18 44 -37q-52 -171 -78 -356l17 -75q-11 -85 -78 -85t-79 94l18 66h-9q-61 -7 -61 -19q0 -170 43 -525l-8 -37l8 -28h-8 l8 -10v-9l-8 -281h-9l9 -9q-53 -422 -148 -422q-35 -33 -35 -65v-113q-20 -45 -70 -84h-52q-53 26 -79 94v9q0 66 18 103h-18v9l-8 -9l-44 9l-35 -9l-8 9h-9l-9 -9l-43 9h-61q-39 29 -79 29l-113 -19q-62 0 -139 168q-70 41 -70 113v19l9 84zM140 295q9 -41 44 -56h8 q-36 66 -52 66v-10zM219 202l61 -122l26 9l8 -9h9l26 9v10q-120 84 -122 112h-8v-9zM245 1391l61 -28q61 13 61 38l-27 9l-8 -9l-44 9h-43v-19zM794 -126v-9h17v9h-17zM1168 1307l9 -9h9l17 28v18z" />
<glyph unicode="K" horiz-adv-x="1393" d="M-15 1048q0 187 25 533l-6 25l87 25q0 21 49 41l31 -8q9 33 56 33h7q20 -19 56 -166l-38 -217l6 -25l-31 -150l7 -25q164 138 534 392l6 8q13 0 81 83q193 114 193 234l6 8h6q20 0 56 -192q13 0 50 -133v-50q-68 -124 -168 -208q0 -50 -62 -117l-25 9q-31 -6 -31 -50 l6 -9q0 -175 -68 -175h-6l-31 42v17q0 44 31 125l-13 41h-6l-143 -83q0 -17 242 -350l230 -366q132 -171 187 -275q180 -89 180 -117l-44 -25l-80 25q-36 -68 -56 -183l-44 -25q-51 0 -56 92v66l-62 9l19 -67q-13 -50 -50 -50h-19q-12 0 -12 67q-31 0 -68 83q0 33 31 33 q0 19 -50 67q0 24 -106 150v-9l7 -58l-25 -50l-31 -8q-46 0 -56 100v8q18 43 18 83q-87 184 -112 184q-57 0 -142 91q0 145 -87 300l-38 58q-65 -43 -87 -124v-25l13 -67v-58q-22 -75 -31 -75l-13 50h-6q0 -65 -56 -184v-58q0 -325 -31 -325h-6q-19 9 -19 50l-50 -16l7 -59 v-25l-31 -50h-25q-94 30 -94 125l-6 25q4 142 13 142l-7 8l7 42v216l-7 125h7l-7 9v8zM84 -10l7 -8h6v16h6l-6 25h-6zM594 548q10 -33 44 -33v8q-19 42 -44 42v-17zM812 981l12 -17l12 34l-6 8h-6zM830 173l6 -50h7v33l-7 25h-6v-8zM911 1198l31 8v25l-31 -17v-16z M1259 -177v-16h6v16h-6z" />
<glyph unicode="L" horiz-adv-x="1355" d="M15 9l16 69l-8 8q19 224 39 224h8l23 -9l8 26q0 192 94 1186v69l7 34l-7 35v17q0 29 101 43q2 34 31 34l63 -8l109 34q55 -25 55 -77q-20 -65 -47 -95v-129l-8 -8v-9q47 -63 47 -120q-25 -122 -70 -172v-52l7 -34q-27 -38 -62 -456l8 -8q-16 -103 -16 -258l39 8h180l8 -8 l7 8h71l7 -8l8 8l71 -8l343 -9q0 19 78 26q86 -37 86 -69q-4 -103 -31 -103h-24v26q-33 0 -62 -189q0 -58 -39 -78h-47l-39 26l-78 -51q-119 86 -141 86q-32 -129 -70 -129q-47 17 -47 68l8 61h-101q0 -47 -32 -61l-46 69h-86q-158 -8 -164 -86q-32 -60 -71 -60 q-62 0 -85 43l-8 -9h-8q-115 45 -125 95zM234 -43v-17h15v17h-15z" />
<glyph unicode="M" horiz-adv-x="1921" d="M7 24v37q48 59 174 389q295 1053 295 1233h33q57 0 208 83q60 -45 60 -65l-13 -27q87 -210 188 -575h6l181 371l174 287h34l6 -9q16 18 155 37h26l7 9h7q35 0 100 -983q40 -344 154 -621q49 -57 74 -176q-12 -20 -20 -129l-20 -19q-27 0 -34 74l7 74q-54 -21 -54 -74 l-26 -28h-14l-6 10l-54 -19q-51 0 -134 269q-13 0 -13 28l-7 9h-7v-9l7 -84l-27 -28h-40q-20 6 -20 75l20 83q-27 56 -27 83h7l-40 102q26 64 26 112q-33 113 -33 185l13 102l-40 501h-7q-30 0 -47 -223l-6 -9h-7l-13 83l6 28q-60 -56 -60 -204v-93l7 -37q-14 -74 -27 -74 l-27 149v27h-13q-16 0 -60 -148l26 -46v-37q0 -15 -73 -56l6 -9v-28q-9 -37 -60 -37l-60 18l-27 -27v-28q20 -32 20 -93q-27 -130 -80 -130h-7l7 56l-7 56h-13q-7 -96 -21 -121h27v-19l-20 -27h-13q-61 0 -61 83l41 232q-14 62 -54 111v9l7 102q-15 3 -40 84l13 111l-40 139 h-14q-145 -605 -234 -871v-10q27 -42 27 -83q-54 -102 -154 -176q-57 -102 -94 -102h-14l-33 37l-67 -37q-35 0 -54 46v10l7 9v9q-20 0 -20 19zM188 -4h13v9h-13v-9zM342 163h13l27 83zM764 756q14 -56 27 -56v19q-13 42 -27 46v-9zM972 682h13v9h-13v-9zM1447 126h7 q15 0 20 46zM1836 -41v-37h7v37h-7z" />
<glyph unicode="N" horiz-adv-x="1482" d="M15 70q26 91 43 349q78 290 104 775q43 219 43 293v38q0 33 -43 94v19q0 34 312 142q194 -270 355 -718l147 -340q25 0 69 633l35 227l-9 9v66l17 19h96l8 -9q20 19 156 28v-9l9 9h43l17 -19v-38l9 -75l-17 -151q34 -69 43 -161q-87 -189 -87 -227l-8 -94l26 -237 q-78 -195 -78 -245q-26 -175 -26 -340v-29l-17 -104l17 -85v-9q0 -95 -104 -104q-55 0 -95 76v18l17 67l-61 28l-51 -9l-61 28h-9l-8 -47h-26v113l-70 180l-43 -10h-26q-20 0 -112 142l17 132q0 39 -43 76l-18 151l9 9v10l-26 75h-17q0 -72 -35 -85h-9l-8 10h-9l26 170 q-11 47 -26 47q-17 -210 -86 -557q-61 -410 -87 -482q-32 -29 -61 -29q-76 0 -103 104l-18 29l-78 -19q-29 0 -43 66zM257 23h9l17 19v28h-26v-47zM742 297l17 -19l18 19q-11 47 -26 47l-9 -10v-37zM1166 -157h9q35 10 35 57z" />
<glyph unicode="O" horiz-adv-x="1549" d="M0 797l8 33v8l-8 25q0 447 350 728q90 99 295 180l15 16h168l8 -8l8 8q388 -103 485 -270q142 -141 167 -335v-17h-8l16 -49h-8l8 -8q-14 -115 -24 -115l8 -8l-8 -32l8 -156q-46 -296 -127 -376l-56 -107q11 -65 24 -65q0 -81 -64 -131h-40q-31 13 -31 57 q-107 -108 -239 -139l-16 -73l32 -82q0 -68 -88 -82q-71 0 -71 106l32 82v8l-32 9l-8 -9h-16l-24 17h-48l-48 8q-32 -3 -79 -98h-32q-71 0 -80 73q0 64 -167 107q-124 70 -191 188q-45 104 -111 425l8 8zM119 691q0 -255 414 -344l120 -8q386 0 525 237q148 187 199 352 l16 90q-13 73 -72 139v-8l8 -49q-14 -37 -56 -66h-24q-14 0 -55 82l16 82q0 47 -48 74l-48 -9h-16q-21 0 -56 115q-17 0 -31 -82l8 -82q0 -59 -80 -73q-63 23 -80 57v8l8 57q-18 0 -23 41l7 49l-7 9l-40 -9q-40 0 -40 17l-8 -8l-64 8l-135 -17l-40 9l-16 -25v-131l-24 -24 q-15 25 -15 114q-96 -63 -96 -123l8 -32q0 -65 -88 -98q0 -16 -87 -90q-80 -181 -80 -262zM215 1018l111 98v49q-102 -93 -111 -147zM462 -168h15v-17h-15v17zM589 1394h8l32 8v-8q31 17 87 17v8l-16 24l-111 -41v-8zM597 1010v16l8 8q0 17 87 25q11 41 24 41h40 q95 -33 95 -115l8 -73l-8 -9v-8l24 -155l-31 -66l7 -24h-7l7 -8v-9q-15 -73 -71 -73l-64 57l8 25h-8l-48 24q-10 -57 -31 -57l-8 8v8l8 139zM605 4l16 16h-16v-16zM780 1452h16v8h-16v-8zM867 -127v-17l16 -16l24 24zM915 -103v-16h8v16h-8zM1114 1345l8 -41l40 8 q-16 33 -48 33zM1249 1108h16v8l-8 41h-8v-49z" />
<glyph unicode="P" horiz-adv-x="1385" d="M8 1357l50 322q0 50 505 101q149 0 456 -110q187 -100 289 -303v-101l17 -101v-37q-28 -74 -66 -74v-18q0 -95 -108 -193l8 -46q0 -110 -174 -110q-144 -32 -198 -110l-75 -10q-45 67 -74 83h-58q-11 -110 -42 -110l-8 9v101l-25 28l-17 -276v-18l-8 -37l8 -9v-9l-8 -37 l8 -110l-8 -37l8 -9v-9l-8 -10v-9l8 -82l-8 -10h-8l8 -9v-9q-8 -83 -33 -83l-17 19v18l9 64h-33q-58 -3 -58 -18l16 -55v-9l-149 -83q-93 0 -116 110q11 82 33 110l-8 10v36q0 71 25 175l-8 27h8l-8 10v9q41 272 41 441h8l-8 9v9l8 101l-8 28h8l-8 9v129l-41 -10 q-50 0 -83 46v28l8 9v9q-17 0 -17 28l17 82zM107 1100l42 -9v18h8l-8 37h-8l-34 -18v-28zM505 1119l8 -10v-55l42 10h16v-10l83 10h66l33 9l9 -9l190 27l-8 9v9l33 46v28q-33 46 -33 73l-50 -55q-50 0 -66 92l-25 37l-8 -9h-33q-46 0 -75 73l-41 9l-50 -156h-25l17 166h-83 l8 -46h-8l8 -10v-45l-8 -56l8 -27l-8 -9v-10l8 -27h-8l8 -9v-46zM770 632l17 18v9h-17v-27zM811 687l17 18h-17v-18zM853 1348l41 -46l9 10v27zM869 705h34v9h-34v-9zM927 714h17v10h-17v-10zM1019 742h16v9h-16v-9zM1052 751h16q25 7 33 37h-8zM1093 1183l17 -18v18h-17z M1267 1119h8l9 36h-17v-36z" />
<glyph unicode="Q" horiz-adv-x="1614" d="M8 791q0 325 248 681q297 238 445 248h198q170 -11 405 -224q132 -169 132 -345q12 0 25 -104l-42 -288l9 -8v-8l-83 -281l-58 -104q0 -53 182 -144q22 -24 91 -48v-16l-9 -40l50 -40v-65l-50 -152q25 -5 25 -64v-40q-11 -32 -74 -32q-58 0 -58 56v8l41 64 q-20 28 -255 192l-83 65h-49q-116 0 -116 -57l-33 -32q-72 11 -116 49h-8l-198 -49l8 -8v-8q-16 -128 -49 -128h-8v88q-55 0 -124 40q-68 -24 -116 -24q-34 89 -91 89q-156 145 -156 320q-42 89 -75 296h9l-9 8v65zM124 646q49 -272 140 -272q72 -56 198 -56h66 q111 0 330 64v24l-41 152l41 16q43 0 215 -96h8q156 102 239 393l25 16l-8 24l8 72l-25 88h-16q-6 -112 -33 -112h-8l-17 16v48l17 104l-9 8h-8l8 40v8q-16 0 -57 48q-42 -24 -42 -64q-16 0 -16 -72l-25 -16l-25 24v16l9 8q-9 88 -25 88q-83 6 -83 48l17 56q-66 28 -66 40 v16h16v8q-42 0 -66 25q-71 0 -132 -57q-204 -67 -281 -192h-49l-8 -24l8 -88v-8l-8 -8l16 -48q-48 -96 -132 -96h-16q-38 0 -42 80l-16 -16l8 -40h-8l8 -24l-8 -8l8 -40v-48q0 -52 -115 -145zM140 735h8q42 20 42 64v72h-17zM511 662v65q42 67 42 96v8l-17 24l25 8l-16 112 q11 16 231 64q82 0 82 -32l-16 -96q24 0 24 -104q-18 -88 -49 -88q-28 -7 -50 -49v-16l42 -48q-17 -48 -66 -48q-58 26 -58 64l16 64h-8q-27 0 -82 -56l-25 -8q-52 0 -75 40zM536 -3h42l-17 16h-8zM660 1375h8l58 17v8h-8l-58 -17v-8zM1048 1255h16v16z" />
<glyph unicode="R" horiz-adv-x="1497" d="M0 1354l15 249l-8 27h8l-8 9v8q5 54 23 54h60l367 71h104l8 -9l7 9q393 -42 509 -125q232 -148 232 -284v-9l-7 -9v-9q22 0 22 -89l-75 -142l8 -9v-9l-8 -9l8 -9v-9l-8 -26l8 -45v-106l-38 -45h-7q-67 0 -67 107l-113 -62q165 -155 285 -401q65 -201 120 -284v-54 l22 -133q0 -27 -75 -89h-37q-30 0 -45 133h-8l-52 -44l-8 -80l23 -98l-38 -44h-37q-17 0 -22 62l7 80l-60 80l15 98q-72 204 -97 231q0 -118 -75 -133q-82 0 -82 124q15 0 15 27l-23 53l15 71q0 84 -112 98q0 187 -97 187l-60 27h-90q-45 0 -45 -54v-53q0 -36 52 -116 q-5 -78 -22 -98v-53l37 -169q-27 -116 -37 -116l7 -44v-18q0 -61 -67 -89q-39 0 -45 63l15 62l-7 9q-33 0 -45 -125l52 -195v-18q0 -77 -97 -107l-8 9h-7l-8 -9h-7q-52 23 -52 89q5 53 14 53l-7 27q22 46 22 142q-67 63 -67 89l8 178l-30 294l7 9l-7 44v98l-8 98l15 97 q-73 64 -82 89v18q0 45 82 214v53l-7 45h-15l-8 -45l8 -27q-20 -62 -90 -62h-8q-37 23 -37 71v18l15 27v44zM82 1229h15v9l-7 27h-8v-36zM150 998h7v27h-7v-27zM307 -185v-17h15v17h-15zM509 1149h37q262 0 449 72l8 53l-23 18h-7l-30 -27h-15q-22 9 -22 53l7 36l-7 9h-8 q-20 -134 -45 -134l-15 18v36l8 62h-38q-86 0 -179 -53q-38 0 -38 98l-7 8h-8q-57 -39 -67 -249zM808 651l30 -9l-30 27v-18zM928 251h15v9h-15v-9zM951 340h15v18zM958 367h8v18h-8v-18zM1377 -7v-18q30 14 30 27h-7z" />
<glyph unicode="S" horiz-adv-x="1526" d="M22 217q0 45 105 347l-9 9l66 110l10 9h10q105 -22 105 -64q-48 -84 -48 -137q0 -165 229 -165q314 0 640 183l-9 46v9l28 37q-57 41 -57 82v37l-115 36l-9 -9l28 -110q-82 -73 -133 -73h-10q-48 21 -48 92l19 36l-9 10h-10q0 -28 -76 -37q-96 51 -96 91l-95 10l-38 -10 q-163 36 -163 83q-39 0 -114 45h-19q0 -26 -39 -45h-19q-86 22 -86 228v10l77 247q80 242 277 347q176 101 410 101h48l296 -64q155 -100 182 -192q0 -32 -67 -137q0 -52 -57 -129q-7 -45 -29 -45q0 76 -57 128v46l-105 -10l-58 46h-9q0 -47 -29 -55h-9l-20 19l20 119l-10 9 h-38q-96 0 -96 -92q-33 -64 -86 -64l-57 18v-9q29 -33 29 -64q-22 -55 -77 -55q-36 9 -57 64l19 64h-10q-38 0 -38 64l-19 -18v-9q29 -39 29 -73q0 -64 -86 -110h-38l-20 18l20 19l-10 27l10 28q-35 17 -48 54q-33 -7 -58 -54v-55q144 -147 755 -147q145 0 344 -164l86 -220 v-18q0 -51 -115 -202l10 -82q-37 -27 -86 -27l-29 36q-27 0 -143 -174v-27l19 -73v-19l-105 -146l-29 -9q-105 0 -105 119l-210 -64v-46l10 -46q-63 -55 -105 -55h-10l-48 37v64l-181 -18h-19q-19 0 -19 -28q28 -47 28 -91q0 -28 -95 -46q-73 0 -86 110l19 82v18 q-63 37 -115 37l-28 27v37h19v-27h28q-38 40 -57 119zM204 -104v-9l28 -27v9l-9 46l9 36v9h-9zM242 -12v-18l19 18h-19zM605 1315h9v18h-9v-18zM691 747h9l48 28v9h-57v-37zM872 601h10v18h-10v-18z" />
<glyph unicode="T" horiz-adv-x="1593" d="M8 1391l41 337l269 35v-9l8 9h25l138 9v-9l9 9h367l8 -9l8 9h310l115 -9l8 9l40 -9h107q73 -13 73 -53q-65 -150 -106 -417l-8 -9h-8l-25 18q0 -35 -41 -35v-125h-8q-24 0 -32 107h8l-8 9v142l-41 8h-33l-8 -8h-8l16 -45q-24 0 -24 -62q-44 -35 -74 -35l-24 26v18 q0 32 32 80v18l-24 8q-114 -35 -114 -53v-62l-41 -222l8 -8l-65 -763l49 -89v-53l-58 -115l25 -116v-26q0 -45 -41 -80h-81l-33 35l24 45v80h-40q-19 0 -25 44h-81q-82 29 -82 115l8 36l-8 26l8 62v18l-8 133q16 124 33 151l-17 97h8l-40 169q122 225 122 523l-8 45 q-24 0 -41 -98l25 -89q0 -73 -90 -88q0 13 -33 26l-8 9v36l8 35l-49 62v18q0 32 33 71l-8 9l-25 9v8l-8 -8h-57l-57 -9v9q-45 0 -49 -80l16 -71q-33 -45 -65 -45q-49 13 -49 45l16 80l-73 8l-66 -8zM592 804l17 -43h8l8 43l-8 9v9l8 43v9h-8zM747 65l24 -9v17h-24v-8z" />
<glyph unicode="U" horiz-adv-x="1780" d="M15 396v53q87 762 168 984q30 65 79 318l10 10h40l9 -10l10 10h99l10 -10q39 21 109 21h69q17 0 30 -53l-10 -32l29 -84q0 -89 -98 -265q0 -156 -99 -328q0 -129 -50 -286l10 -10q-29 -160 -29 -275v-11q0 -203 257 -265h19q305 36 366 64l10 -11l49 11l10 -11l30 11v63 l10 96l-10 10l30 424l-10 10v11l39 148v63h-10l-29 -10v10l10 53q-40 17 -40 74q0 64 129 191q39 103 39 180l-10 32h10l-10 10v32q0 21 50 21v53l19 21h218l109 11q49 -14 49 -32v-42l-59 -339l10 -64q-17 -158 -50 -158l-10 10h-10q-79 -373 -79 -624v-349 q-69 -46 -69 -106q40 -74 50 -170h-10l10 -10v-32q0 -100 -109 -148q-129 32 -129 127l69 138l-39 42l10 53h-40l-39 10l-79 -53q-20 0 -20 85h-10q-36 -127 -59 -127q-20 0 -20 64h-20l-39 -11q-24 0 -79 64l-89 21q-81 0 -168 -96q-115 -8 -198 -63l-99 74h-99l-10 11h-10 q-17 -127 -39 -127q-20 0 -30 95l10 53q-168 197 -168 370zM460 15v-32h10l19 22l-9 10h-20zM598 1507h10v32h-10v-32zM608 1560h10v43h-10v-43zM1122 132l20 -22v22h-20zM1172 1169l19 -21l10 53v31q-29 -10 -29 -63zM1419 -165v-21l39 -10v63h-10z" />
<glyph unicode="V" horiz-adv-x="1519" d="M15 1167v21q76 107 76 189q105 241 200 241l257 74h10q29 0 29 -42q-46 -55 -77 -252l-9 -11h-10l-9 63h-19l-29 -168l200 -608h19q139 391 353 850q100 189 124 189l85 10v-10l248 52l19 -84l-19 -31l9 -11q0 -145 -161 -283l-39 -95l19 -126q0 -49 -133 -199l10 -10 q-17 -3 -58 -84l10 -53q0 -117 -95 -157q-40 -189 -57 -189l-10 42h-9l-134 -346l19 -74q0 -54 -47 -84h-67q-22 0 -29 53l10 52l-48 -21l10 -31q-6 -84 -19 -84q19 -41 19 -116q-29 -63 -143 -94q-76 15 -76 84v42l28 42v31l-19 32l10 31l-67 42l-67 189l10 32l-67 136 l-9 73q0 53 19 53q-99 283 -115 283v-21l39 -115q0 -53 -48 -84q-114 38 -114 147l9 52l-9 32l9 10h10q-38 59 -38 221l38 94q-15 42 -29 42zM110 674l29 -32l19 21l-10 11h-38zM501 -197l28 -11l29 11l-29 31zM749 34l9 -11h10l9 32h-9z" />
<glyph unicode="W" horiz-adv-x="2197" d="M0 1119v41l25 153v30q0 35 -25 72v10q12 82 158 82l166 30q32 -49 58 -183q68 0 108 -133q-50 -108 -50 -194l67 -377v-31h8q274 384 274 469q25 41 50 41l-33 92h-8q0 -112 -17 -112q-25 39 -25 92v81q29 61 75 61v-10l50 21l8 -11l191 62h9q46 -102 83 -102l33 -62v-20 l-8 -41l182 -581h9l257 693l-8 11v10q33 109 42 286q82 102 158 102q147 20 241 71q19 0 66 -92l-8 -10l8 -10v-10q-25 -49 -25 -153v-51l-25 -31h-16l-9 143h-8l-75 -215l17 -71l-9 -31l9 -112q-17 -78 -67 -122q-79 0 -141 -194l8 -61q0 -126 -141 -245 q-112 -405 -133 -429q-35 -41 -66 -41l-75 11q-37 -7 -125 -123h-33l-8 10l-9 -10h-8q-50 0 -50 102l50 113q0 23 -125 214q0 150 -99 275v21l16 20l-41 133h-9l-58 -72v-102q0 -99 -133 -122q-116 -218 -116 -388q-57 -107 -83 -122h-42q-26 10 -58 102h-17v10 q-29 0 -49 -82l25 -71l-9 -10v-11l9 -10v-10q0 -153 -100 -153q-117 14 -117 122l50 92q-50 511 -116 847l-25 61l-8 -10h-9q-13 0 -91 245zM249 -146v-10l17 -21h8v21zM332 -156v-31l17 20v11h-17zM399 1272q12 -41 25 -41h8v10l-25 62h-8v-31zM416 1180h8v31h-8v-31z M565 140l25 30v31h-17l-8 -51v-10zM789 568h17v31l-17 -21v-10zM1712 1517h8l17 61q-14 0 -25 -51v-10zM1728 650h9v20h-9v-20zM1961 1109h8l17 71h-17l-8 -51v-20z" />
<glyph unicode="X" horiz-adv-x="1683" d="M8 183v9q0 43 130 154q212 221 443 516q-72 0 -87 100l44 54q-25 0 -35 73l9 9h8q-17 41 -34 45q0 -57 -87 -72q-47 0 -78 108l8 9v9l-8 37h8q0 48 -95 90l-61 100l17 54l-52 127q100 100 200 100q92 -78 226 -254q89 -44 252 -281l43 -27l243 299l-9 45v18 q251 245 296 245l173 -281l-52 -63q-48 -43 -52 -82l9 -72q0 -49 -104 -109l-44 -109l35 -127q-20 -72 -87 -72q-56 0 -78 54v9l9 46l-113 -100q121 -142 121 -163l269 -362l148 -182v-18l-9 -9l9 -9v-9q0 -36 -43 -36q-12 -136 -44 -136h-26l-35 27h-8q-28 0 -87 -54 l-26 18q0 -73 -52 -73q-24 0 -78 82v27l26 45q-3 68 -87 163v19l8 9v9q-25 7 -260 362q-38 -127 -61 -127l-17 18l26 154h-17l-61 -226l-35 -36l-43 9h-9q-64 0 -139 -145l-43 -27h-9l-9 9q-49 -21 -191 -182v-36l44 -99q-30 -82 -148 -82q-78 45 -78 109v45l26 36 q-61 172 -104 172zM156 47h17l-17 18v-18zM173 -134l35 -37l43 9v9zM251 1369l35 -18v18l-26 28h-9v-28zM364 1161l9 -9h17v82h-17v-28zM651 373h17v18zM1232 889l26 -9l26 9l-34 37h-9zM1380 1225l35 27h-9z" />
<glyph unicode="Y" horiz-adv-x="1519" d="M15 123v9q46 101 460 577l119 148l-32 70h-23l-32 -70h-8l-16 18v104q-1 23 -87 96v27l24 52l-32 44h-8l-56 -149h-7l-8 9v87l8 9l-16 53l8 8l-56 88q-87 22 -87 61q24 42 24 131q-16 0 -16 26q-72 13 -72 35q28 122 111 122l199 79q14 -2 119 -201l301 -437l453 559h39 q13 0 95 -192l48 -87l-24 -44l8 -9v-8l-87 -271h-8q-16 0 -16 26l16 87h-8q-44 -15 -127 -122l8 -52l-64 -131l8 -97v-26q-38 -61 -87 -61q-42 0 -71 52v9l8 88q-127 -113 -127 -210q-34 0 -72 -184l-8 -8h-8q-15 0 -15 26l8 70q-191 -121 -191 -227q-30 -184 -103 -184h-48 l-39 9q-103 -122 -159 -219l32 -104q-37 -114 -135 -114h-16q-40 0 -40 96l-16 35q20 87 32 87q0 39 -95 175zM475 167h8l32 9v17h-8q-32 -13 -32 -26zM1078 752h16q24 9 24 53v8q-40 -26 -40 -61zM1110 822h8v18h-8v-18z" />
<glyph unicode="Z" horiz-adv-x="1780" d="M23 130h8l-8 29l8 10l-8 49v30l8 10l-8 10v177l24 29h73q34 0 210 197q624 543 702 590l-40 39l-8 -10l-40 10h-65l-24 -20l8 -9v-10q-11 -41 -40 -59h-89q-41 28 -41 59l8 29h-64q-138 -21 -138 -157l-24 -20h-16q-47 0 -73 79q-30 12 -56 49q0 158 73 443l40 -10h8 l945 98q323 -33 323 -69l8 -10v-9q-57 -75 -57 -118l41 -197q-16 -70 -81 -118l16 -89q0 -84 -64 -147h-17q-64 73 -64 157q-25 0 -170 -167q-104 0 -145 -147q0 -46 -121 -69q0 -20 -121 -158l-8 10v69l72 79h-8q-119 -84 -137 -138l8 -10v-29q0 -51 -24 -59q-13 0 -33 78 l-177 -157l97 -10h40l8 -10l8 10q73 -6 73 -19l8 9q247 -39 371 -39v-10l25 10q236 0 363 39q73 -29 73 -49q-59 -169 -65 -324q-13 0 -56 -128l-8 -10h-17q-64 0 -64 98h-8q-73 -13 -73 -108l40 -147q-58 -69 -145 -69h-24q-57 53 -57 108v10l49 59l-8 10v118l-146 29 q-43 0 -48 -128l-8 -9h-8l-16 19v99l-17 19h-80l8 -10v-9l-16 -20v-39l16 -79v-30l-16 -19h-25l-8 10h-8l8 49v59h-40q-52 28 -81 78q-77 -59 -105 -59l-105 89l-210 20q-145 -75 -194 -158h-48q-67 46 -97 197zM96 51h8v20h-8v-20zM653 81l24 -30h8l16 20v10h-48zM734 1300 l16 20v10h-16v-30zM790 1261l16 19v10l-16 -19v-10zM1097 858q40 0 57 49v10h-8l-49 -40v-19zM1283 -185v-19l16 -20v20zM1533 1182h8v20h-8v-20zM1557 1212h17v9h-17v-9z" />
<glyph unicode="[" horiz-adv-x="758" />
<glyph unicode="\" horiz-adv-x="569" />
<glyph unicode="]" horiz-adv-x="758" />
<glyph unicode="^" />
<glyph unicode="_" horiz-adv-x="1024" d="M0 -100h1024v-60h-1024v60z" />
<glyph unicode="`" horiz-adv-x="1024" d="M212 1363q0 31 20.5 51t53.5 20q20 0 40.5 -12t55.5 -47l291 -296h-69l-330 202q-31 20 -46.5 40t-15.5 42z" />
<glyph unicode="a" horiz-adv-x="1191" d="M0 53v9q0 60 198 565q50 219 316 548l172 191l-46 247l125 18q138 0 138 -64q0 -99 80 -328l92 -447l72 -694l7 -9v-27q-22 -73 -33 -73h-46l-178 -64l-13 82h6l-59 566h-33l-132 -19l-59 19h-20q-158 0 -158 -55q0 -33 -119 -328l-7 -28l14 -18q-45 -118 -66 -128 l-86 18h-66l-73 -9q-26 14 -26 28zM521 710q35 -37 59 -37h53l7 -9l6 9h66l73 9l6 -9l27 9q0 158 -79 356q-218 -276 -218 -328z" />
<glyph unicode="b" horiz-adv-x="1378" d="M0 206q35 337 46 337h13q26 0 85 -89q62 -53 86 -53l105 833h-46l-33 -9v9l-92 -18q-26 13 -26 27l52 275l-6 8v9q0 50 210 71h72l46 9v-9l7 9h72l7 -9l6 9q121 -11 191 -35l6 8h7q193 -71 308 -212q105 -50 105 -169l14 -71q-33 -142 -106 -195q-15 0 -32 -35l6 -9 l-6 -44v-9q90 -43 190 -204q13 -101 46 -133v-53q0 -34 -33 -124q0 -34 -79 -124q-49 -130 -203 -195q-245 -71 -466 -71h-60l-6 9l-7 -9q-147 0 -407 177zM486 294l98 -8h14q308 0 308 62q59 108 59 150v9q0 20 -52 36l-7 -9h-6l-191 97q-27 36 -65 36h-112q-22 0 -46 -337 v-36zM571 1012h7l26 9h210l66 9v-9q98 30 98 45v8q-48 108 -210 160l-118 27l-6 -9h-40q-33 -158 -33 -240z" />
<glyph unicode="c" horiz-adv-x="1526" d="M7 765v35q0 75 79 238q72 147 137 211l122 123q0 79 65 79q208 150 474 150h29q409 0 554 -273l-93 -220q0 -70 -22 -70q-33 0 -101 106q-137 105 -388 105q-125 0 -266 -61l14 -62q-47 0 -230 -273l-22 -193q28 -157 87 -203q28 -35 86 -53q0 -96 288 -96l93 -9l7 -9 l8 9h64q85 0 144 132h36q118 -62 151 -97q86 0 86 -79q-35 -127 -136 -211l-79 -53q-187 -44 -259 -44h-58l-7 9l-7 -9q-271 40 -309 97q-303 121 -475 484q-72 170 -72 237z" />
<glyph unicode="d" horiz-adv-x="1601" d="M8 1253v27l86 304h17l60 -9l128 18l9 -9l42 9q334 0 574 -152q117 -25 462 -348q163 -252 163 -456v-9l-9 -36l9 -9v-9q0 -223 -128 -384q-172 -214 -214 -214l-35 9q0 -22 -248 -45q-366 0 -907 170l17 161l-9 9v8l69 161l85 -9h26l8 9h9l-9 63v9q0 297 86 670v45l-8 9 l-26 -9l-223 -9zM556 557q0 -117 43 -117t43 -18l-60 -80q0 -25 402 -54q215 0 300 367q-52 163 -249 295q-199 178 -376 223h-17q-72 -391 -86 -608v-8z" />
<glyph unicode="e" horiz-adv-x="1720" d="M0 8v20l29 41l-10 50v30l10 10l-10 10q15 171 87 171h97q29 0 29 212v90q-116 20 -116 40q77 182 87 262l19 20l-9 10q27 0 68 201l-10 10h-271v41l87 151l-10 30l10 40l-10 10q0 121 68 121l967 -10l78 10l29 -10l367 40l10 -10v-10q0 -71 -19 -71l9 -10 q-13 -137 -38 -161l9 -10v-40l-9 -10l9 -10v-10q0 -70 -213 -70q-160 -21 -561 -21l-29 -10l-38 10h-97l-10 -50v-70l10 -71h10l38 10l10 -10l116 10h68l10 -10l9 10h10l19 -20l-48 -261v-81q0 -20 -78 -30l-9 10l-68 -10h-87q-29 0 -29 -161v-70l813 -41q158 10 232 51 q48 -17 48 -51l-126 -352l-164 -30q-617 20 -706 40l-29 -10l-39 10l-39 -10h-19v10l-532 -20z" />
<glyph unicode="f" horiz-adv-x="1445" d="M0 1202l33 203l-8 11v86l8 10l-8 11v11l32 64l754 21v-10l8 10h16l33 -10l8 10l41 -10h221l8 -11l9 11h8l24 -11l90 11h58l24 21h8l25 -32q-45 -481 -90 -481q-53 -118 -66 -118h-8l-24 32l16 161h-8l-491 10l-25 -10l-8 10l-58 -10h-65l-25 -257h9q229 -43 229 -75 q-44 -363 -74 -363l-205 21v-11q-43 -513 -73 -513q-66 0 -90 -21l-8 10l-148 -21q-37 21 -41 43v32l41 492q-33 16 -33 32q33 227 33 374q66 21 66 214v32h-90l-33 -11l-8 11h-9l-73 -11h-17q-16 0 -16 32z" />
<glyph unicode="g" horiz-adv-x="1541" d="M0 289v8l22 314v101q46 274 315 618q252 240 479 263q241 0 524 -85v-17q-48 -239 -83 -288h-7l-374 43q-359 0 -562 -585v-50l8 -85l-23 -237l83 -26h37l38 9v-9l22 9q115 0 277 34v-9q242 51 322 119q27 0 52 135v17h-7q-142 12 -142 26l-8 -9q-195 11 -195 51 q68 288 90 288q127 -6 127 -17l8 8q300 -42 427 -42q52 0 52 -59q-17 0 -37 -102l15 -17l-128 -626q60 -14 60 -34l-45 -85l-277 17l-37 59h-8q-428 -93 -613 -93q-76 0 -217 76q-65 0 -158 161z" />
<glyph unicode="h" horiz-adv-x="1162" d="M8 61v18l6 47l-6 57q3 121 13 121l-7 10v9l7 10l-7 28l20 178l-7 9l13 122l-6 10l26 196l-7 10l52 337l-7 10v9q39 160 46 291l-7 9v10q0 45 45 56l78 -19l77 10q65 0 65 -85v-9l-52 -375l33 -10l38 10h7l6 -10l7 10h6l97 -28l7 9h6q86 -28 149 -28h71q32 279 97 506 l58 19q0 -19 187 -38l13 -28q-65 -246 -110 -534l7 -10v-9l-26 -141l6 -9v-9q-10 -132 -19 -132l6 -28l-25 -197l6 -9v-10l-13 -140l7 -28l-7 -85v-56l-6 -9l6 -10v-9q-13 -319 -39 -319h-6l-58 9l-7 -9l-26 9l-129 -9l-19 38v18l19 150l-6 10l13 150l-7 9l13 197l-6 9v10 l19 150l-6 9l12 160h-77l-6 9l-7 -9h-6l-130 37l-6 -9l-116 28l-84 -28q-17 -291 -26 -291l6 -9v-10q-4 -131 -13 -131l7 -47v-103l6 -38q-13 -58 -32 -65l-6 9l-7 -9l-26 9l-187 -19z" />
<glyph unicode="i" horiz-adv-x="692" d="M15 1268q51 282 83 315h62l20 17h104l55 9l103 -18l35 9h27l118 9q41 -40 41 -88q-48 -7 -76 -262l-7 -9h-82l-7 -9l-7 -26h-7l7 -9v-8l-21 -167l7 -9v-35l-7 -8l7 -9l-7 -61v-18l7 -26l-7 -44v-17l7 -149l-7 -79l14 -114l-7 -44l7 -87l83 17l34 -26q-66 -333 -90 -333 h-6l-83 -8l-110 17l-42 -17l-41 8l-152 -26q-41 11 -41 26v9q46 306 83 306q96 18 96 35v53l-14 61h7l-7 9v61l7 9l-7 9v17l7 27l-7 43v70l-7 97l7 35l-7 9l7 43l-7 44l14 166l-7 27l7 8h7l-7 9v9l14 105h-7l-131 -17q-62 8 -62 35z" />
<glyph unicode="j" horiz-adv-x="1221" d="M22 676q25 213 120 213q112 0 135 -54l-8 -62l45 -204h-7l7 -9v-18l-67 -133v-18q210 -195 322 -213q75 24 75 116h8l-8 9l23 142l-8 9l15 151l-37 612l-38 9l-45 -9l-135 18l-7 -9h-8l-127 18l-30 -9l-60 9l-105 -9q-24 0 -60 36q20 186 30 186l-8 9v9q0 124 45 124 l120 9l83 -18l60 9l105 -18l30 9l82 -18l53 9l97 -9l90 9l83 -9l15 18l105 -18l22 9l8 -9l15 18h97q30 -18 30 -44q-22 -26 -75 -311l-165 -18v-80q0 -75 15 -115l-7 -53q22 -135 22 -391l8 -9v-9l-15 -124l7 -9l-30 -187l8 -8q-59 -293 -195 -293q-56 -25 -188 -36 q-266 0 -450 355q-97 324 -97 418z" />
<glyph unicode="k" horiz-adv-x="1370" d="M7 85l18 244l-6 30v68l6 8l-6 8v53l-6 205h6l-12 84l6 46l-6 7v8l6 7l-6 92v30l6 61l-6 38l12 122l-6 7v8q24 296 36 296q142 10 168 23l6 -8l30 8h12l12 -15v-8q0 -172 -18 -205l6 -8v-7l-12 -137v-99h6q176 148 407 281l247 190q81 36 132 153l-6 7v8l11 15 q28 0 37 -99l71 -198q0 -93 -119 -159q0 -13 -91 -53q0 -21 -54 -54q-6 -15 -233 -152v-15q255 -339 395 -586q222 -278 222 -311q171 -82 174 -107q0 -15 -30 -15l-6 -8v-7l-102 30q-65 -53 -114 -53l-78 15l-18 -7l-17 7l-13 -15h-6l-6 8l-17 -8q-48 14 -48 30v23 q0 21 29 23q0 14 -54 68l-149 213q-62 131 -342 502l-42 61q-64 -31 -180 -137v-83l-6 -8l6 -8v-7l-6 -8l6 -38v-53l6 -91l-12 -130l6 -22l-6 -137q-14 -21 -204 -54q0 -15 -24 -15z" />
<glyph unicode="l" horiz-adv-x="1169" d="M8 6q23 288 48 288h7l6 -8h7l7 8v9l-7 8l21 161l-7 9v8l13 110l-6 34l34 323l-7 8l20 127l-6 9v8l27 161l-7 26l7 8h7l-7 9v8l13 119l-6 25l13 17l-7 9h-6l13 102q-13 0 -13 25q0 16 34 51l41 -8l82 8v-8l6 8h7l21 -17l6 9h41q41 0 41 -68l7 -51l-7 -43l7 -8v-9l-27 -245 l7 -9l-28 -153l7 -8v-9l-20 -152l7 -9l-21 -144l7 -8v-9q-11 -144 -21 -144l7 -8v-9l-20 -178l7 -9v-50h6l116 8v-8l7 8l27 -8l239 -9l7 -8h7l7 8h6l7 -8h7l27 8l96 -17l150 26q67 -35 68 -51v-9q-72 -83 -102 -280l-82 -25v8l-21 -8l-156 17l-7 -9l-123 17l-7 -8h-7l-75 8 h-6l-28 -8l-116 17l-375 -51h-7q-20 8 -20 51z" />
<glyph unicode="m" horiz-adv-x="1996" d="M-15 8v26q32 0 231 468l224 748l48 170l-7 9v8q6 94 21 94h14l42 -9l175 77q40 0 84 -60l-14 -25q129 -315 182 -519h7q136 192 140 247l224 331l42 17l7 -8q121 17 132 34l7 -9h7l7 9h7l7 -9l35 9h7q42 0 77 -604l7 -9l-7 -8v-9l21 -161h-7q19 -319 147 -647 q81 -126 84 -170q0 -44 -140 -59q0 -23 -98 -43l-14 -17q-95 138 -182 417l-35 170l7 9q-18 0 -41 272l-28 332v8q-14 11 -14 102h-7q0 -30 -168 -264l-91 -195q-21 -128 -42 -128q-98 0 -154 -34l-91 -17q-91 241 -147 459l-21 26q-35 -149 -63 -187l7 -9v-8l-195 -570 l-126 -238l-49 -51h-21l-35 8l-49 -8l-7 8l-35 -8h-91z" />
<glyph unicode="n" horiz-adv-x="1288" d="M15 -27q116 679 131 881v9l7 9l-7 10q12 163 22 163l-8 9v9l29 127l-7 9v9l29 182l-43 64v45q0 24 145 64q0 21 116 54q123 -180 131 -245q27 -34 189 -500q78 -227 109 -272q0 109 15 109l-7 9v9l21 155l-7 9v9l15 63l-8 9v9l15 28l-7 9l21 199l-7 10v9l29 181l-7 37v36 q0 27 94 27l8 -9l36 9h80l22 18h29l29 -27l-7 -118l7 -36l-29 -164l7 -9v-9l-22 -163l8 -9l-22 -146l7 -9l-29 -181l7 -10v-9l-36 -308l7 -9v-9l-29 -164l7 -9l-7 -64v-118l-14 -18l-73 9q0 -27 -102 -27v9q-28 -18 -80 -18h-51l-80 218q-14 9 -210 590q-18 0 -37 100h-14 l7 -9v-9l-22 -155l7 -9v-9l-43 -181l7 -9l-80 -473h-36l-124 10l-7 -10v-9l-7 9h-8l-7 -9l-44 9l-58 -9z" />
<glyph unicode="o" horiz-adv-x="1333" d="M7 751l13 108l-6 8v7q0 161 134 394q234 286 308 294l134 69v-8l7 8h6q225 0 362 -108q163 -86 275 -324l33 -170h-6l13 -62l-27 -131l7 -39v-108l-7 -8l7 -7v-8q0 -118 -87 -301q-200 -378 -335 -378q-71 -29 -248 -39q-158 15 -295 77q-133 69 -208 216 q-80 347 -80 510zM108 573q4 -61 13 -61l47 -93q107 -109 355 -162l33 8h7l67 -8l14 15h26q255 0 436 394q45 63 80 216l-20 62l7 8q-90 153 -215 254q-104 70 -227 108l-7 -7l-20 7q-133 0 -282 -108q0 -15 -73 -77l-107 -131q-134 -209 -134 -425zM503 882q0 35 47 62 l6 -8h7q20 3 47 39l27 8v-8l7 8h6q50 -29 74 -78v-54l13 -61l-6 -8q6 -103 20 -116v-31q-60 -93 -134 -93q-74 23 -74 116l-13 70l6 7q-11 0 -26 147h-7z" />
<glyph unicode="p" horiz-adv-x="1109" d="M0 1200v9q0 66 20 127l-7 9q12 195 47 195l74 17l6 -8q0 20 121 34l7 -9q0 17 20 17l180 9v-9l7 9h20l7 -9l6 9h7q299 -75 388 -170q147 -160 147 -238v-34l-40 -196l7 -8q0 -206 -221 -323l-100 -26l-7 9l-14 -17l-6 8h-7l-27 -8l-20 8l-6 -8v-9l-34 9h-7l-26 -9l-7 9 h-7l-127 -9l-13 -93l7 -9v-8l-20 -128l6 -25l-6 -153l6 -43l-6 -68v-34l6 -42l-254 -60l-20 34v77l7 8l-7 9v93l7 51l-7 43v17l7 34l-7 8l13 68l-6 26l26 297l-6 34v34l6 34l-6 9v17h6l-6 102v76l6 179l-6 42h-27q-23 -25 -100 -25zM401 1022l7 -94l7 9h13l140 8l7 -8h7l7 8 h6l20 -8l40 8v-8l154 34l74 51l6 8v9q-26 0 -26 34q-83 116 -388 187l-7 -9l-33 9h-27v-85l-7 -51l7 -34l-7 -9v-8l7 -9z" />
<glyph unicode="q" horiz-adv-x="1310" d="M15 632v22l7 8l-7 7v30l7 8l-7 7v8q0 101 80 368q110 267 348 405q134 53 161 83h13l7 -8l7 8q187 -25 354 -150l87 -90q114 -184 114 -368l13 -68l-33 -195l7 -23q-7 -131 -114 -420v-38l214 -150v-8l-20 -82l13 -120h-6l6 -8v-15h-107q-38 0 -214 173q-60 13 -60 45 q-343 -120 -469 -120h-33q-199 0 -281 202l7 8v7q-20 0 -47 181q-40 164 -40 210h6q-13 29 -13 83zM109 542q41 -263 127 -263q0 -25 154 -45l67 7l6 -7h7l228 52v23l-27 150l20 15q51 0 194 -98q107 100 187 316q20 135 34 135q-58 234 -221 345q-86 57 -221 98 q-165 -37 -348 -203q-136 -160 -187 -420l-20 -98v-7zM450 849q96 46 187 61l61 -15l6 7l7 -23l-13 -45l6 -7l-6 -8h-7l7 -7v-23l-7 -30l7 -7v-8l-7 -7v-8l7 -7v-8l-7 -30l13 -15q0 -67 -53 -67l-161 -45l-13 37h6l-6 8v7l6 30l-13 38h7q-14 31 -27 172z" />
<glyph unicode="r" horiz-adv-x="1430" d="M0 1218v9l7 41l-7 50l7 9v8l-7 8l14 92l-7 66l22 33h36l373 67l93 -8h29l7 -9l7 9l129 -25l8 8q129 -23 129 -33l7 8h7q302 -108 388 -266q21 -32 21 -75l-57 -183q0 -34 -29 -100l7 -8v-8q-31 -86 -150 -133l-36 -9v-8q225 -237 323 -532l57 -150q0 -40 -108 -75 l-71 -58l-51 -50h-14q-32 0 -79 183l-115 258q-86 169 -301 341l-180 -9l-7 -41l7 -42v-91l-7 -8l29 -233v-150q0 -67 -72 -67l-21 9l-173 -42h-7q-29 17 -29 50l8 116l-8 34h8l-8 8v67l-14 158v16l7 9l-14 66l7 100l-7 50l50 441l-7 33v33l7 8l-7 25l-108 -16l-7 8l-14 -17 h-50zM488 1010l201 9l22 -9q0 17 143 34l172 58q-89 90 -294 133l-129 17l-7 -9l-94 17v-8l-7 -158h-7l7 -9v-16z" />
<glyph unicode="s" horiz-adv-x="1258" d="M8 155q0 49 87 325l-8 25q19 0 64 94l8 9h8q87 -26 87 -51v-9l-40 -119q0 -152 191 -171h8q225 25 413 111q56 0 167 128q-16 0 -24 60q-32 72 -262 128l-8 -9h-8l-32 17l-8 -8h-95l-48 8l-32 -8q-166 34 -262 77q-174 124 -174 196q124 426 206 479q182 162 318 162l8 8 h47l104 9l135 -43l39 9q87 0 231 -188l7 -34q-103 -111 -142 -111l-64 -17l-8 8l-16 -17h-24q-87 63 -87 85v43h-24l-47 9q-69 -34 -286 -60l-175 -86l-16 -68v-8q42 -65 302 -129h71l8 -8l8 8l24 -8l79 8q297 0 437 -213l24 -60v-51q0 -156 -198 -359q-118 -223 -294 -282 q-209 -85 -373 -111q-96 0 -96 17l-8 -8h-8q-92 0 -190 153z" />
<glyph unicode="t" horiz-adv-x="1459" d="M0 1260v17l7 52l-7 26l7 8h8l-8 26l15 138l-7 9v9q0 60 97 60l105 17l8 -8l52 17l7 -9h8l30 9l7 -9l8 9h15l7 -9l8 9h277l30 -9l30 9h37l75 -9l30 9l112 -9l53 9l7 -9h8l7 9l38 -9h15l22 9l142 -17l8 8h7l53 -8l7 8h8q58 -23 67 -51q-67 -228 -67 -285l-23 -26l-37 8 h-105l-8 9l-7 -9l-37 9h-120l-90 9l-8 -87l8 -60q-10 -112 -23 -112l8 -26l-23 -147l8 -9v-8l-67 -648v-26l7 -34l-7 -9v-9l7 -8v-9l-7 -52l7 -34l-15 -35l-90 9h-7l-45 -9l-8 9l-112 -26q-45 6 -45 121l8 9v8l-8 9q5 69 15 69l-7 8v9l7 26l-7 35l22 112l-7 8v9l44 337 l-7 26l15 121l-8 8v9q30 143 45 345l-7 35l7 8l-22 18h-142l-105 -9l-8 9h-7l-23 -9l-7 9h-8l-7 -9h-7l-23 9l-22 -9v9q-24 -15 -218 -35zM195 854v9l22 25v-8z" />
<glyph unicode="u" horiz-adv-x="1504" d="M0 324v29l8 10l-8 10v10l33 197l-9 9l41 197l-8 10v10q57 365 155 689l-8 9v40l33 39h8l8 -10l8 10h98l8 -10q37 20 107 20h48l17 -20v-19l-147 -660l8 -9l-65 -374l8 -10l-16 -148q0 -196 212 -265l359 59l25 -10l16 69v19h-8l8 69v89l8 10l-8 9v10q14 177 24 177l-8 10 v10l33 197l-8 10l114 531l-8 10v10q21 167 49 167l65 10l114 -20l74 20q57 -16 57 -49l-82 -394l9 -10v-10l-82 -364l8 -10v-9q-24 -138 -33 -315l9 -40l-9 -147l9 -59l-9 -30l9 -10v-9q0 -59 -41 -59l-237 -79h-25q-26 0 -40 108h-8l-41 -10v10l-213 -59h-114 q-27 -20 -220 -59l-82 20l-8 -10h-8q-237 108 -237 374z" />
<glyph unicode="v" horiz-adv-x="1385" d="M0 1133q37 0 61 131q87 241 242 241l173 51h17l26 -31q-138 -212 -138 -301v-71q26 -141 173 -573h9q139 433 424 986q78 0 78 20l26 -10l225 40l17 -70q-176 -305 -450 -1006q-87 -272 -173 -443l8 -10v-10q0 -54 -112 -71v11l-216 -91q-35 42 -165 513z" />
<glyph unicode="w" horiz-adv-x="2144" d="M-7 1343v40q0 20 99 30l9 10h66l140 31q35 0 125 -544l-9 -10q17 0 58 -363q81 75 281 413l-8 10v10q39 71 58 71l-66 171v10l182 50l8 -10h8l108 51h8q53 -16 215 -564l83 -232l364 957l-8 40q0 71 99 71v-10l257 70l8 -10v-50l-83 -282q-107 -348 -256 -645 q-100 -231 -215 -604q0 -49 -91 -60q-172 -91 -207 -91h-8q-24 0 -50 181q-160 333 -240 625h-8q-285 -377 -389 -645q-20 -20 -149 -40q0 -20 -149 -71l-41 71l8 40q-108 1049 -207 1279z" />
<glyph unicode="x" horiz-adv-x="1616" d="M7 193v49l144 138l407 421q60 42 60 56q-171 212 -382 421q-58 0 -110 187q0 12 110 73l8 -9h9l17 17h42q31 0 229 -227q90 -50 212 -219l68 -56q48 35 229 259h9l-9 40v16q247 219 289 219h8q19 -4 144 -227q17 0 17 -40l-127 -114l8 -48q-68 -28 -330 -356l-26 -25 l144 -154q2 -19 85 -113q51 -89 170 -219q0 -16 68 -64l59 -89v-9l-102 -89q-8 -40 -59 -40l8 -8v-8l-84 -57h-17q-140 190 -204 235v8l9 24q-32 22 -272 373v16h-8q-21 0 -416 -421q-17 0 -93 -73q-23 -4 -68 -81l-34 -8l-161 162zM1585 1465v16h8v-16h-8z" />
<glyph unicode="y" horiz-adv-x="1266" d="M25 117v16q5 73 357 461l128 158v16q0 45 -287 588q-45 105 -45 142l236 88q95 -226 280 -572q4 -31 20 -31q14 0 388 476h32q17 -22 83 -222l19 -40v-8q-45 -40 -389 -484q-141 -147 -420 -492q-157 -172 -249 -318q-36 36 -153 222z" />
<glyph unicode="z" horiz-adv-x="1519" d="M-15 64l7 55l-7 55l7 9v9l-7 37l7 9l-7 9l7 46l-7 46h7l-7 9v9q9 46 21 46l7 -9l35 9h35l7 -9h7q127 172 503 495q231 211 357 303v18l-21 -9q-232 0 -532 -55v9l-7 -9h-76q-52 0 -56 27v37q42 266 63 312h14l7 -9l7 9l34 -9h49l560 64l7 -9l28 9l174 9q147 -9 147 -28 l7 10h14l7 -10l7 10h7q43 0 77 -65q-63 -108 -63 -146v-19q17 -21 28 -174v-9l-21 -27l-7 9h-7q-147 -135 -342 -266q-149 -113 -532 -477l77 -18l7 9h7l133 -28l7 9l133 -27l21 9l77 -18l28 9l63 -9l139 9l7 -9h7l21 9v-9q65 27 133 27l56 -36l-56 -220l7 -10v-18 q0 -54 -42 -92h-42l-112 -18h-42l-28 9l-28 -9h-6q-119 0 -119 18l-7 -9l-280 46l-35 -9l-77 18l-7 -9h-7l-28 9l-7 -9l-49 9h-21l-21 -9l-35 9h-76l-7 9l-21 -9l-98 9l-21 -9v9q-84 -64 -105 -64h-7q-12 0 -21 55l-7 -9h-28q-14 4 -28 46z" />
<glyph unicode="{" d="M240 638v60q172 5 223 71t51 133v468q0 74 77 141.5t185 67.5h108v-50h-90q-61 0 -107 -33.5t-47 -91.5v-500q0 -83 -60.5 -158.5t-142.5 -76.5v-2q82 -1 143 -76t61 -158l-1 -500q1 -58 47 -91.5t107 -33.5h90v-50h-108q-108 0 -184.5 67.5t-77.5 141.5v468 q0 66 -51 132t-223 71z" />
<glyph unicode="|" d="M427 -418v1995h160v-1995h-160z" />
<glyph unicode="}" d="M130 -192h90q61 0 107 33.5t47 91.5l-1 500q0 83 61 158t144 76v2q-83 1 -143.5 76.5t-60.5 158.5v500q-1 58 -47 91.5t-107 33.5h-90v50h108q108 0 185 -67.5t77 -141.5v-468q0 -67 51 -133t223 -71v-60q-172 -5 -223 -71t-51 -132v-468q-1 -74 -77.5 -141.5 t-184.5 -67.5h-108v50z" />
<glyph unicode="~" d="M94 556v156q64 73 123 99t114 26q64 0 181.5 -49.5t172.5 -49.5q52 0 108.5 28t129.5 112v-156q-63 -72 -122 -97.5t-116 -25.5q-60 0 -177.5 48.5t-176.5 48.5q-51 0 -107.5 -28t-129.5 -112z" />
<glyph unicode="&#xa1;" horiz-adv-x="672" />
<glyph unicode="&#xa2;" horiz-adv-x="1139" />
<glyph unicode="&#xa3;" d="M76 673v60h135q-58 143 -58 253q0 226 123.5 347t306.5 121h4q75 0 185.5 -14t110.5 -34v-161h-58q-5 61 -77 102q-72 31 -160 31h-2q-100 0 -190 -101q-84 -93 -84 -241q0 -15 1 -30q0 -135 53 -273h360v-60h-334q14 -30 31 -60q35 -63 35 -138q0 -161 -162 -375h402 q130 0 189 132l49 -1l-103 -231h-719l1 50q187 238 187 418q0 77 -34 143q-17 32 -31 62h-161z" />
<glyph unicode="&#xa4;" d="M122 413l118 117q-32 46 -48 103q-12 42 -12 84q0 44 13 87q16 55 47 99l-118 118l80 81l118 -118q44 30 99 46q44 14 89 14q41 0 83 -12q57 -17 102 -48l118 118l80 -81l-117 -117q31 -46 48 -102q12 -42 12 -85q0 -42 -12 -85q-17 -56 -48 -102l117 -117l-80 -81 l-118 118q-45 -32 -101 -48q-42 -12 -85 -12q-42 0 -85 12q-57 16 -102 48l-118 -118zM284 716q0 -28 9 -56q16 -59 57 -100q41 -40 99 -57q29 -8 58 -8t58 8q58 17 99 57q40 41 57 99q9 29 9 58t-9 58q-17 58 -57 99q-41 40 -100 57q-29 8 -58 8t-58 -9q-58 -17 -98 -56 q-39 -40 -56 -98q-10 -30 -10 -60z" />
<glyph unicode="&#xa5;" horiz-adv-x="1262" d="M8 1176q0 19 10.5 27.5t32.5 8.5q27 0 123 -8t164 -8h57h31q33 0 41 -6.5t8 -26.5q0 -8 -15 -14t-38 -6q-6 0 -18.5 2t-18.5 2q-24 0 -37.5 -9.5t-13.5 -25.5q0 -18 16.5 -52t46.5 -77l158 -221q13 -19 33 -53q41 -70 71 -70q9 0 16.5 5t14.5 15l277 396q8 12 13 26.5 t5 24.5q0 18 -10 27t-37 14q-15 2 -41 4q-47 3 -47 25q0 15 8 22.5t25 7.5q3 0 15 -1q56 -7 108 -7h139q30 0 65 1t37 1q11 0 18.5 -4.5t8.5 -11.5q0 -28 -38 -34q-18 -3 -27 -5q-63 -15 -147 -117q-7 -9 -12 -15l-169 -206h323q15 0 24 -6t9 -17q0 -15 -6 -20.5t-23 -5.5 h-366q-46 -57 -96.5 -112.5t-52.5 -59.5h511q18 0 25.5 -5.5t7.5 -17.5q0 -14 -7 -21t-22 -7h-530q0 -11 -1 -30.5t-1 -29.5l2 -215q0 -114 5.5 -150t20.5 -44q30 -17 107.5 -19t77.5 -31q0 -12 -10 -20t-25 -8q-2 0 -35.5 4t-64.5 4q-91 0 -208.5 -4t-142.5 -4q-31 0 -40 4 t-9 16t8 18.5t37 12.5q9 2 25 5q74 16 92 32q17 13 24 47t7 102l-2 242q0 19 -1.5 35t-4.5 32l-484 1q-14 0 -21 6.5t-7 19.5t6.5 19t21.5 6h467l-121 172h-344q-17 0 -23.5 5.5t-6.5 18.5q0 14 6 19.5t22 5.5h307q-43 57 -108 155q-131 197 -227 197q-7 0 -13 5.5t-6 11.5z " />
<glyph unicode="&#xa6;" d="M427 371h160v-789h-160v789zM427 789v789h160v-789h-160z" />
<glyph unicode="&#xa7;" d="M170 1130q0 148 89 237q82 79 216 86q8 1 17 1h3q66 0 163 -16.5t97 -41.5v-194h-51q-5 81 -80 132q-70 47 -149 51h-15q-78 0 -125 -44.5t-47 -117.5q0 -132 287 -269q149 -67 204.5 -143.5t55.5 -187.5q0 -171 -101 -282q-47 -39 -99 -64q108 -56 154 -118 q55 -77 55 -187q0 -171 -101 -283q-124 -102 -277 -105v1q-6 -1 -13 -1h-3q-66 0 -163 16.5t-97 41.5v194h51q5 -81 80 -132q68 -45 145 -50q113 6 185 69q72 64 72 165q0 125 -316 276q-123 64 -175.5 137t-52.5 177q0 148 89 237q67 65 170 82l-40 19q-123 64 -175.5 137 t-52.5 177zM297 571q0 -123 248 -250q56 16 97 53q73 65 73 166q0 5 -1 10h-2q-1 14 -4 27q-22 61 -113 127q-59 29 -126 29q-78 0 -125 -44.5t-47 -117.5z" />
<glyph unicode="&#xa8;" horiz-adv-x="1024" d="M209 1263q0 13 14 26l71 72q13 12 25 12q11 0 27 -14l69 -73q10 -14 10 -25q0 -13 -12 -27l-69 -75q-17 -17 -25 -17q-14 0 -25 12l-76 86q-9 12 -9 23zM574 1263q0 13 14 26l71 72q13 12 25 12q11 0 27 -13l69 -74q10 -14 10 -25q0 -13 -12 -26l-69 -76q-17 -17 -25 -17 q-14 0 -25 12l-76 87q-9 11 -9 22z" />
<glyph unicode="&#xa9;" horiz-adv-x="1674" d="M100 718q0 148 55.5 283t159.5 238q102 104 238.5 160.5t286.5 56.5q145 0 280 -56.5t239 -160.5q102 -101 158.5 -238t56.5 -283q0 -147 -56.5 -282t-162.5 -240q-105 -105 -239 -159.5t-283 -54.5q-146 0 -278 55.5t-238 160.5q-106 104 -161.5 237.5t-55.5 282.5z M160 718q0 -137 51 -259t148 -219q98 -96 219 -147t256 -51q137 0 259.5 50.5t219.5 145.5q97 98 149 221.5t52 258.5q0 134 -52 259.5t-145 219.5q-96 96 -220 147.5t-258 51.5q-137 0 -262 -51.5t-220 -147.5t-146 -219.5t-51 -259.5zM351 719q0 126 65.5 244t187.5 184.5 t254 66.5q38 0 75 -6.5t76 -20.5q5 -1 9 -1q19 0 26 30h42l72 -198h-44q-52 94 -131 124q-72 26 -147 26h-15q-86 -8 -166.5 -71t-121.5 -177q-33 -90 -33 -184q0 -25 2 -50q11 -121 69.5 -224t149.5 -152q72 -40 166 -42q124 0 194 56t70 126h53v-100q0 -46 -96.5 -86.5 t-242.5 -40.5q-142 0 -264 68t-186 185t-64 243z" />
<glyph unicode="&#xaa;" horiz-adv-x="648" />
<glyph unicode="&#xab;" horiz-adv-x="944" d="M174 479l342 303h14v-37l-205 -266l205 -266v-37h-14zM487 479l342 303h14v-37l-205 -266l205 -266v-37h-14z" />
<glyph unicode="&#xac;" d="M87 667v100h840v-491l-1 -1h-98v392h-741z" />
<glyph unicode="&#xad;" horiz-adv-x="670" d="M68 682v24l4 4l-4 4l12 68l-4 16q0 40 72 40l48 4l36 -4l16 4l36 -4h48l4 -4l12 8l16 -4l84 4v-4l4 4h12l4 -4l4 4h64q22 0 32 -20l-16 -56l4 -4v-4q-12 -20 -12 -68l8 -8q0 -12 -48 -12v4l-4 -4l-40 8l-12 -4l-136 -4l-4 4h-4l-4 -4l-40 4h-12l-24 -4l-44 8l-96 -4h-8z " />
<glyph unicode="&#xae;" horiz-adv-x="1674" d="M100 718q0 148 55.5 283t159.5 238q102 104 238.5 160.5t286.5 56.5q145 0 280 -56.5t239 -160.5q102 -101 158.5 -238t56.5 -283q0 -147 -56.5 -282t-162.5 -240q-105 -105 -239 -159.5t-283 -54.5q-146 0 -278 55.5t-238 160.5q-106 104 -161.5 237.5t-55.5 282.5z M160 718q0 -137 51 -259t148 -219q98 -96 219 -147t256 -51q137 0 259.5 50.5t219.5 145.5q97 98 149 221.5t52 258.5q0 134 -52 259.5t-145 219.5q-96 96 -220 147.5t-258 51.5q-137 0 -262 -51.5t-220 -147.5t-146 -219.5t-51 -259.5zM524 269v50h43q37 0 37 121v538 q0 121 -37 121h-43v70h356q64 -1 125 -42q60 -41 92.5 -114t32.5 -152q0 -78 -32 -150.5t-114 -134.5l82 -116q100 -141 150 -141h34v-50h-346v50h45q30 0 30 22q0 29 -69 114l-75 102q-42 0 -84 42v-159q0 -121 36 -121h53v-50h-316zM751 725l3 -8q23 -56 56 -81 q29 -22 56 -22h6q31 4 61.5 38.5t46.5 97.5q13 50 13 103q0 13 -1 27q-4 67 -28 124.5t-56.5 76t-63.5 18.5h-93v-374z" />
<glyph unicode="&#xaf;" horiz-adv-x="670" />
<glyph unicode="&#xb0;" horiz-adv-x="674" d="M60 1164q0 116 81.5 197t197.5 81q115 0 196 -81.5t81 -196.5q0 -114 -82 -196t-197 -82q-117 0 -197 81t-80 197zM130 1163q0 -87 61 -147t148 -60t147 60t60 147t-60.5 148t-146.5 61t-147.5 -61t-61.5 -148z" />
<glyph unicode="&#xb1;" />
<glyph unicode="&#xb2;" />
<glyph unicode="&#xb3;" />
<glyph unicode="&#xb4;" horiz-adv-x="1024" d="M316 1078l291 297q35 35 55.5 47t40.5 12q33 0 53.5 -20t20.5 -51q0 -22 -15.5 -42t-46.5 -40l-330 -203h-69z" />
<glyph unicode="&#xb5;" horiz-adv-x="1180" />
<glyph unicode="&#xb6;" horiz-adv-x="1024" d="M93 1086q0 157 107.5 253t285.5 96h443v-70h-127v-1365h-82v1365h-166v-1365h-84v738q-174 8 -275.5 102.5t-101.5 245.5z" />
<glyph unicode="&#xb7;" horiz-adv-x="508" d="M129 709q0 15 16 31l82 84q15 14 29 14q13 0 31 -16l80 -86q12 -16 12 -29q0 -15 -14 -31l-80 -88q-20 -20 -29 -20q-16 0 -29 14l-88 101q-10 13 -10 26z" />
<glyph unicode="&#xb8;" horiz-adv-x="1024" d="M360 -290q85 -52 152 -52q66 0 94.5 21.5t28.5 66.5t-49 64q-40 16 -102 16q-16 0 -34 -2l48 176h63l-37 -104q32 4 62 5q86 0 134 -40.5t48 -113.5q0 -76 -58.5 -120.5t-160.5 -44.5q-109 0 -189 32v96z" />
<glyph unicode="&#xb9;" />
<glyph unicode="&#xba;" horiz-adv-x="718" />
<glyph unicode="&#xbb;" horiz-adv-x="944" d="M101 176v37l205 266l-205 266v37h14l342 -303l-342 -303h-14zM414 176v37l205 266l-205 266v37h14l342 -303l-342 -303h-14z" />
<glyph unicode="&#xbc;" horiz-adv-x="1708" />
<glyph unicode="&#xbd;" horiz-adv-x="1964" />
<glyph unicode="&#xbe;" horiz-adv-x="1708" />
<glyph unicode="&#xbf;" horiz-adv-x="748" />
<glyph unicode="&#xc0;" horiz-adv-x="1296" d="M0 61l7 9l-7 9v9l236 681q65 156 214 359l243 296l-21 188q-16 0 -29 -126h-14v36q0 197 36 197l-7 27l78 18v-9q109 18 186 54q19 0 57 -358l29 -45l-14 -54q33 -149 128 -439l108 -663h-8l29 -72q-10 -99 -50 -99l21 -107v-18q0 -128 -100 -161h-7q-57 0 -57 143v45 l14 27v27q-30 0 -93 -36l-85 591h-15q-28 -179 -57 -179l-7 9l36 215q-75 0 -93 -45l21 -107q0 -54 -43 -90h-7q-46 0 -71 63l14 116l-14 45q-143 0 -143 -54l-7 -80v-63l-36 -45h-14q-24 0 -51 27h-7l-78 -215l14 -18v-27l-50 -98v-18l29 -63v-27q-28 -72 -101 -72 q-21 33 -28 135l14 45l-7 9l-7 -9h-43q26 -216 57 -216q0 -91 -78 -125h-43q-65 0 -72 143l29 180q-21 0 -36 35zM57 -145l7 -9h15l7 108l-7 9h-8zM536 752q0 -16 43 -45l36 9h43l7 -9q34 18 193 27v18l-36 170h-7q0 -39 -50 -54q-32 15 -50 54v54q0 26 28 80h-7 q-114 -127 -114 -215l-7 -9h-7l-22 18zM1144 -118v-9h7l14 72q-17 0 -21 -63z" />
<glyph unicode="&#xc1;" horiz-adv-x="1540" />
<glyph unicode="&#xc2;" horiz-adv-x="1325" d="M0 61l7 9l-7 9v9l236 681q65 156 214 359l243 296l-21 188q-16 0 -29 -126h-14v36q0 197 36 197l-7 27l78 18v-9q109 18 186 54q19 0 57 -358l29 -45l-14 -54q33 -149 128 -439l108 -663h-8l29 -72q-10 -99 -50 -99l21 -107v-18q0 -128 -100 -161h-7q-57 0 -57 143v45 l14 27v27q-30 0 -93 -36l-85 591h-15q-28 -179 -57 -179l-7 9l36 215q-75 0 -93 -45l21 -107q0 -54 -43 -90h-7q-46 0 -71 63l14 116l-14 45q-143 0 -143 -54l-7 -80v-63l-36 -45h-14q-24 0 -51 27h-7l-78 -215l14 -18v-27l-50 -98v-18l29 -63v-27q-28 -72 -101 -72 q-21 33 -28 135l14 45l-7 9l-7 -9h-43q26 -216 57 -216q0 -91 -78 -125h-43q-65 0 -72 143l29 180q-21 0 -36 35zM57 -145l7 -9h15l7 108l-7 9h-8zM536 752q0 -16 43 -45l36 9h43l7 -9q34 18 193 27v18l-36 170h-7q0 -39 -50 -54q-32 15 -50 54v54q0 26 28 80h-7 q-114 -127 -114 -215l-7 -9h-7l-22 18zM1144 -118v-9h7l14 72q-17 0 -21 -63z" />
<glyph unicode="&#xc3;" horiz-adv-x="1540" />
<glyph unicode="&#xc4;" horiz-adv-x="1303" d="M0 61l7 9l-7 9v9l236 681q65 156 214 359l243 296l-21 188q-16 0 -29 -126h-14v36q0 197 36 197l-7 27l78 18v-9q109 18 186 54q19 0 57 -358l29 -45l-14 -54q33 -149 128 -439l108 -663h-8l29 -72q-10 -99 -50 -99l21 -107v-18q0 -128 -100 -161h-7q-57 0 -57 143v45 l14 27v27q-30 0 -93 -36l-85 591h-15q-28 -179 -57 -179l-7 9l36 215q-75 0 -93 -45l21 -107q0 -54 -43 -90h-7q-46 0 -71 63l14 116l-14 45q-143 0 -143 -54l-7 -80v-63l-36 -45h-14q-24 0 -51 27h-7l-78 -215l14 -18v-27l-50 -98v-18l29 -63v-27q-28 -72 -101 -72 q-21 33 -28 135l14 45l-7 9l-7 -9h-43q26 -216 57 -216q0 -91 -78 -125h-43q-65 0 -72 143l29 180q-21 0 -36 35zM57 -145l7 -9h15l7 108l-7 9h-8zM536 752q0 -16 43 -45l36 9h43l7 -9q34 18 193 27v18l-36 170h-7q0 -39 -50 -54q-32 15 -50 54v54q0 26 28 80h-7 q-114 -127 -114 -215l-7 -9h-7l-22 18zM1144 -118v-9h7l14 72q-17 0 -21 -63z" />
<glyph unicode="&#xc5;" horiz-adv-x="1540" />
<glyph unicode="&#xc6;" horiz-adv-x="2118" />
<glyph unicode="&#xc7;" horiz-adv-x="1593" d="M-15 865q0 134 133 372q1 50 196 252q0 84 62 84q36 67 321 177l250 37q424 0 587 -242v-19q-94 -243 -94 -326l16 -177q-8 -93 -78 -93q-94 0 -94 112v56q0 113 31 223q-144 84 -266 84h-24v-9l-7 -94h-24l-15 19v84l-32 9q-165 -18 -250 -56l-8 -46l24 -140 q-31 -93 -86 -93h-24q-16 1 -63 93l-93 -121l7 -28l-31 -140v-18h-16q-15 0 -15 74h-8l-8 -37l8 -9l-8 -47v-93q0 -116 94 -215l110 -65q34 -65 78 -65h133l47 -9l8 9l39 -9h109l39 9v-9q139 0 196 167h16l203 -93q86 0 86 -84q-39 -149 -141 -223q-53 0 -94 -233l-47 -19 h-31l-39 47v28l16 74l-149 -28h-16q-19 -84 -31 -84l-16 28v56l-23 -9l-39 9h-55l-8 10l-8 -10l-101 19v-9l23 -112q-8 -112 -78 -112h-24q-72 0 -86 121l32 131q0 43 -219 130l-126 103q0 -122 -70 -122h-23q-71 0 -71 122l31 186q-156 200 -156 373zM188 231h8q24 9 24 56 v9h-8l-24 -56v-9zM627 1172l7 -9h8q16 0 16 28l-8 46q-13 0 -23 -65zM650 -238q85 -52 152 -52q66 0 94.5 21.5t28.5 66.5t-49 64q-40 16 -102 16q-16 0 -34 -2l48 176h63l-37 -104q32 4 62 5q86 0 134 -40.5t48 -113.5q0 -76 -58.5 -120.5t-160.5 -44.5q-109 0 -189 32v96z M666 -30v-28h7v28h-7zM1331 1060h15l8 65l-8 47h-8l-7 -93v-19z" />
<glyph unicode="&#xc8;" horiz-adv-x="1690" d="M8 1247v41l74 151l-10 10v131q0 71 120 71l239 20l9 -10h9l37 10v-10l9 10h101l184 10v-10l138 20v-10l138 20v-10l257 41l28 10h9l9 -10h9q0 27 129 40l9 -50l-18 -41l9 -30l-19 -30l10 -10v-10l-19 -111l9 -71q0 -51 -156 -81q28 -203 28 -434q0 -100 -111 -110 q-82 37 -82 110l73 384v40l-174 -20v-30q27 -42 27 -111q0 -101 -101 -101q-50 0 -64 111l9 50q-7 61 -18 61q-184 0 -184 -41q-14 -40 -28 -40h-27v10l9 51h-83v-31l-9 -40l18 -121l221 30l9 -10h9l28 10l18 -20l-37 -262v-91q0 -20 -55 -20l10 -10v-41q0 -77 -37 -90h-46 l-9 10l-10 -10h-9q-27 6 -27 80v20l9 11v10h-46q-28 0 -28 -111v-71q0 -37 28 -60l9 10h156l157 10v-10l9 10h331q157 0 321 60q37 -10 37 -40l-119 -464l27 -20l-27 -111l9 -41l-9 -10v-10q18 -30 27 -121q-44 -131 -156 -131q-92 49 -92 71v50l92 262l-9 10v11l9 30 l-19 70l-385 -10v10l-37 -10v-30l18 -71l-73 -40q-74 27 -74 51v10l18 80h-156l-46 -10l9 -10l-9 -50l9 -51q-13 -40 -27 -40q-28 0 -28 131v20h-9q-174 0 -174 -40q21 -39 36 -151q0 -43 -101 -122q-110 0 -110 91v10l28 172h-166l-27 30l18 40l-9 101v31q2 100 18 100 l-9 11v30q0 20 73 30v-10l92 30l10 111l-10 172l-9 10h-18q-18 -126 -46 -131h-9v121q0 20 -28 20l-9 10v10q64 182 73 272l19 21l-9 10q21 0 46 212h-56l-9 -71l19 -91q-39 -40 -74 -40q-73 0 -73 101l9 30q-12 60 -28 60h-55zM1267 955h9v30h-9v-30zM1432 -235h19v20h9 l-9 40h-9z" />
<glyph unicode="&#xc9;" horiz-adv-x="1705" d="M8 1247v41l74 151l-10 10v131q0 71 120 71l239 20l9 -10h9l37 10v-10l9 10h101l184 10v-10l138 20v-10l138 20v-10l257 41l28 10h9l9 -10h9q0 27 129 40l9 -50l-18 -41l9 -30l-19 -30l10 -10v-10l-19 -111l9 -71q0 -51 -156 -81q28 -203 28 -434q0 -100 -111 -110 q-82 37 -82 110l73 384v40l-174 -20v-30q27 -42 27 -111q0 -101 -101 -101q-50 0 -64 111l9 50q-7 61 -18 61q-184 0 -184 -41q-14 -40 -28 -40h-27v10l9 51h-83v-31l-9 -40l18 -121l221 30l9 -10h9l28 10l18 -20l-37 -262v-91q0 -20 -55 -20l10 -10v-41q0 -77 -37 -90h-46 l-9 10l-10 -10h-9q-27 6 -27 80v20l9 11v10h-46q-28 0 -28 -111v-71q0 -37 28 -60l9 10h156l157 10v-10l9 10h331q157 0 321 60q37 -10 37 -40l-119 -464l27 -20l-27 -111l9 -41l-9 -10v-10q18 -30 27 -121q-44 -131 -156 -131q-92 49 -92 71v50l92 262l-9 10v11l9 30 l-19 70l-385 -10v10l-37 -10v-30l18 -71l-73 -40q-74 27 -74 51v10l18 80h-156l-46 -10l9 -10l-9 -50l9 -51q-13 -40 -27 -40q-28 0 -28 131v20h-9q-174 0 -174 -40q21 -39 36 -151q0 -43 -101 -122q-110 0 -110 91v10l28 172h-166l-27 30l18 40l-9 101v31q2 100 18 100 l-9 11v30q0 20 73 30v-10l92 30l10 111l-10 172l-9 10h-18q-18 -126 -46 -131h-9v121q0 20 -28 20l-9 10v10q64 182 73 272l19 21l-9 10q21 0 46 212h-56l-9 -71l19 -91q-39 -40 -74 -40q-73 0 -73 101l9 30q-12 60 -28 60h-55zM1267 955h9v30h-9v-30zM1432 -235h19v20h9 l-9 40h-9z" />
<glyph unicode="&#xca;" horiz-adv-x="1698" d="M8 1247v41l74 151l-10 10v131q0 71 120 71l239 20l9 -10h9l37 10v-10l9 10h101l184 10v-10l138 20v-10l138 20v-10l257 41l28 10h9l9 -10h9q0 27 129 40l9 -50l-18 -41l9 -30l-19 -30l10 -10v-10l-19 -111l9 -71q0 -51 -156 -81q28 -203 28 -434q0 -100 -111 -110 q-82 37 -82 110l73 384v40l-174 -20v-30q27 -42 27 -111q0 -101 -101 -101q-50 0 -64 111l9 50q-7 61 -18 61q-184 0 -184 -41q-14 -40 -28 -40h-27v10l9 51h-83v-31l-9 -40l18 -121l221 30l9 -10h9l28 10l18 -20l-37 -262v-91q0 -20 -55 -20l10 -10v-41q0 -77 -37 -90h-46 l-9 10l-10 -10h-9q-27 6 -27 80v20l9 11v10h-46q-28 0 -28 -111v-71q0 -37 28 -60l9 10h156l157 10v-10l9 10h331q157 0 321 60q37 -10 37 -40l-119 -464l27 -20l-27 -111l9 -41l-9 -10v-10q18 -30 27 -121q-44 -131 -156 -131q-92 49 -92 71v50l92 262l-9 10v11l9 30 l-19 70l-385 -10v10l-37 -10v-30l18 -71l-73 -40q-74 27 -74 51v10l18 80h-156l-46 -10l9 -10l-9 -50l9 -51q-13 -40 -27 -40q-28 0 -28 131v20h-9q-174 0 -174 -40q21 -39 36 -151q0 -43 -101 -122q-110 0 -110 91v10l28 172h-166l-27 30l18 40l-9 101v31q2 100 18 100 l-9 11v30q0 20 73 30v-10l92 30l10 111l-10 172l-9 10h-18q-18 -126 -46 -131h-9v121q0 20 -28 20l-9 10v10q64 182 73 272l19 21l-9 10q21 0 46 212h-56l-9 -71l19 -91q-39 -40 -74 -40q-73 0 -73 101l9 30q-12 60 -28 60h-55zM1267 955h9v30h-9v-30zM1432 -235h19v20h9 l-9 40h-9z" />
<glyph unicode="&#xcb;" horiz-adv-x="1690" d="M8 1247v41l74 151l-10 10v131q0 71 120 71l239 20l9 -10h9l37 10v-10l9 10h101l184 10v-10l138 20v-10l138 20v-10l257 41l28 10h9l9 -10h9q0 27 129 40l9 -50l-18 -41l9 -30l-19 -30l10 -10v-10l-19 -111l9 -71q0 -51 -156 -81q28 -203 28 -434q0 -100 -111 -110 q-82 37 -82 110l73 384v40l-174 -20v-30q27 -42 27 -111q0 -101 -101 -101q-50 0 -64 111l9 50q-7 61 -18 61q-184 0 -184 -41q-14 -40 -28 -40h-27v10l9 51h-83v-31l-9 -40l18 -121l221 30l9 -10h9l28 10l18 -20l-37 -262v-91q0 -20 -55 -20l10 -10v-41q0 -77 -37 -90h-46 l-9 10l-10 -10h-9q-27 6 -27 80v20l9 11v10h-46q-28 0 -28 -111v-71q0 -37 28 -60l9 10h156l157 10v-10l9 10h331q157 0 321 60q37 -10 37 -40l-119 -464l27 -20l-27 -111l9 -41l-9 -10v-10q18 -30 27 -121q-44 -131 -156 -131q-92 49 -92 71v50l92 262l-9 10v11l9 30 l-19 70l-385 -10v10l-37 -10v-30l18 -71l-73 -40q-74 27 -74 51v10l18 80h-156l-46 -10l9 -10l-9 -50l9 -51q-13 -40 -27 -40q-28 0 -28 131v20h-9q-174 0 -174 -40q21 -39 36 -151q0 -43 -101 -122q-110 0 -110 91v10l28 172h-166l-27 30l18 40l-9 101v31q2 100 18 100 l-9 11v30q0 20 73 30v-10l92 30l10 111l-10 172l-9 10h-18q-18 -126 -46 -131h-9v121q0 20 -28 20l-9 10v10q64 182 73 272l19 21l-9 10q21 0 46 212h-56l-9 -71l19 -91q-39 -40 -74 -40q-73 0 -73 101l9 30q-12 60 -28 60h-55zM1267 955h9v30h-9v-30zM1432 -235h19v20h9 l-9 40h-9z" />
<glyph unicode="&#xcc;" horiz-adv-x="657" />
<glyph unicode="&#xcd;" horiz-adv-x="657" />
<glyph unicode="&#xce;" horiz-adv-x="864" d="M15 1405q9 107 44 182l-9 9v10q23 28 35 143q120 38 428 38h26l9 -10l8 10h201q47 0 61 -38v-38l-8 -10v-9l17 -19q-49 -229 -70 -258l26 -210v-57l-8 -10v-9l8 -10l-104 -66q-70 28 -70 114l17 19l-9 10v19q44 55 44 114l-9 76h-35q-26 0 -43 -400l9 -29l-9 -9l9 -67 v-181q0 -130 17 -210l-9 -29q9 -76 26 -76l105 19l26 -38l-17 -67l35 -38v-10l-44 -200l-52 -67l35 -124q-22 -57 -79 -57q-61 33 -61 76l18 77l-62 38l-78 -19l-70 47l-9 -9h-96q0 -105 -96 -105l-9 -10h-8q-55 0 -88 96q-26 0 -26 19q13 95 26 95l-8 10v9q47 229 96 229 l104 19l-17 544v200l17 267h-43v-28q0 -73 -35 -86h-44q-27 10 -61 95z" />
<glyph unicode="&#xcf;" horiz-adv-x="871" d="M15 1405q9 107 44 182l-9 9v10q23 28 35 143q120 38 428 38h26l9 -10l8 10h201q47 0 61 -38v-38l-8 -10v-9l17 -19q-49 -229 -70 -258l26 -210v-57l-8 -10v-9l8 -10l-104 -66q-70 28 -70 114l17 19l-9 10v19q44 55 44 114l-9 76h-35q-26 0 -43 -400l9 -29l-9 -9l9 -67 v-181q0 -130 17 -210l-9 -29q9 -76 26 -76l105 19l26 -38l-17 -67l35 -38v-10l-44 -200l-52 -67l35 -124q-22 -57 -79 -57q-61 33 -61 76l18 77l-62 38l-78 -19l-70 47l-9 -9h-96q0 -105 -96 -105l-9 -10h-8q-55 0 -88 96q-26 0 -26 19q13 95 26 95l-8 10v9q47 229 96 229 l104 19l-17 544v200l17 267h-43v-28q0 -73 -35 -86h-44q-27 10 -61 95z" />
<glyph unicode="&#xd0;" horiz-adv-x="1518" />
<glyph unicode="&#xd1;" horiz-adv-x="1554" />
<glyph unicode="&#xd2;" horiz-adv-x="1614" />
<glyph unicode="&#xd3;" horiz-adv-x="1614" />
<glyph unicode="&#xd4;" horiz-adv-x="1556" d="M0 797l8 33v8l-8 25q0 447 350 728q90 99 295 180l15 16h168l8 -8l8 8q388 -103 485 -270q142 -141 167 -335v-17h-8l16 -49h-8l8 -8q-14 -115 -24 -115l8 -8l-8 -32l8 -156q-46 -296 -127 -376l-56 -107q11 -65 24 -65q0 -81 -64 -131h-40q-31 13 -31 57 q-107 -108 -239 -139l-16 -73l32 -82q0 -68 -88 -82q-71 0 -71 106l32 82v8l-32 9l-8 -9h-16l-24 17h-48l-48 8q-32 -3 -79 -98h-32q-71 0 -80 73q0 64 -167 107q-124 70 -191 188q-45 104 -111 425l8 8zM119 691q0 -255 414 -344l120 -8q386 0 525 237q148 187 199 352 l16 90q-13 73 -72 139v-8l8 -49q-14 -37 -56 -66h-24q-14 0 -55 82l16 82q0 47 -48 74l-48 -9h-16q-21 0 -56 115q-17 0 -31 -82l8 -82q0 -59 -80 -73q-63 23 -80 57v8l8 57q-18 0 -23 41l7 49l-7 9l-40 -9q-40 0 -40 17l-8 -8l-64 8l-135 -17l-40 9l-16 -25v-131l-24 -24 q-15 25 -15 114q-96 -63 -96 -123l8 -32q0 -65 -88 -98q0 -16 -87 -90q-80 -181 -80 -262zM215 1018l111 98v49q-102 -93 -111 -147zM462 -168h15v-17h-15v17zM589 1394h8l32 8v-8q31 17 87 17v8l-16 24l-111 -41v-8zM597 1010v16l8 8q0 17 87 25q11 41 24 41h40 q95 -33 95 -115l8 -73l-8 -9v-8l24 -155l-31 -66l7 -24h-7l7 -8v-9q-15 -73 -71 -73l-64 57l8 25h-8l-48 24q-10 -57 -31 -57l-8 8v8l8 139zM605 4l16 16h-16v-16zM780 1452h16v8h-16v-8zM867 -127v-17l16 -16l24 24zM915 -103v-16h8v16h-8zM1114 1345l8 -41l40 8 q-16 33 -48 33zM1249 1108h16v8l-8 41h-8v-49z" />
<glyph unicode="&#xd5;" horiz-adv-x="1614" />
<glyph unicode="&#xd6;" horiz-adv-x="1549" d="M0 797l8 33v8l-8 25q0 447 350 728q90 99 295 180l15 16h168l8 -8l8 8q388 -103 485 -270q142 -141 167 -335v-17h-8l16 -49h-8l8 -8q-14 -115 -24 -115l8 -8l-8 -32l8 -156q-46 -296 -127 -376l-56 -107q11 -65 24 -65q0 -81 -64 -131h-40q-31 13 -31 57 q-107 -108 -239 -139l-16 -73l32 -82q0 -68 -88 -82q-71 0 -71 106l32 82v8l-32 9l-8 -9h-16l-24 17h-48l-48 8q-32 -3 -79 -98h-32q-71 0 -80 73q0 64 -167 107q-124 70 -191 188q-45 104 -111 425l8 8zM119 691q0 -255 414 -344l120 -8q386 0 525 237q148 187 199 352 l16 90q-13 73 -72 139v-8l8 -49q-14 -37 -56 -66h-24q-14 0 -55 82l16 82q0 47 -48 74l-48 -9h-16q-21 0 -56 115q-17 0 -31 -82l8 -82q0 -59 -80 -73q-63 23 -80 57v8l8 57q-18 0 -23 41l7 49l-7 9l-40 -9q-40 0 -40 17l-8 -8l-64 8l-135 -17l-40 9l-16 -25v-131l-24 -24 q-15 25 -15 114q-96 -63 -96 -123l8 -32q0 -65 -88 -98q0 -16 -87 -90q-80 -181 -80 -262zM215 1018l111 98v49q-102 -93 -111 -147zM462 -168h15v-17h-15v17zM589 1394h8l32 8v-8q31 17 87 17v8l-16 24l-111 -41v-8zM597 1010v16l8 8q0 17 87 25q11 41 24 41h40 q95 -33 95 -115l8 -73l-8 -9v-8l24 -155l-31 -66l7 -24h-7l7 -8v-9q-15 -73 -71 -73l-64 57l8 25h-8l-48 24q-10 -57 -31 -57l-8 8v8l8 139zM605 4l16 16h-16v-16zM780 1452h16v8h-16v-8zM867 -127v-17l16 -16l24 24zM915 -103v-16h8v16h-8zM1114 1345l8 -41l40 8 q-16 33 -48 33zM1249 1108h16v8l-8 41h-8v-49z" />
<glyph unicode="&#xd7;" d="M161 470l247 247l-247 248l99 98l247 -247l248 247l98 -99l-247 -247l247 -247l-99 -99l-247 247l-247 -247z" />
<glyph unicode="&#xd8;" horiz-adv-x="1614" />
<glyph unicode="&#xd9;" horiz-adv-x="1765" d="M15 396v53q87 762 168 984q30 65 79 318l10 10h40l9 -10l10 10h99l10 -10q39 21 109 21h69q17 0 30 -53l-10 -32l29 -84q0 -89 -98 -265q0 -156 -99 -328q0 -129 -50 -286l10 -10q-29 -160 -29 -275v-11q0 -203 257 -265h19q305 36 366 64l10 -11l49 11l10 -11l30 11v63 l10 96l-10 10l30 424l-10 10v11l39 148v63h-10l-29 -10v10l10 53q-40 17 -40 74q0 64 129 191q39 103 39 180l-10 32h10l-10 10v32q0 21 50 21v53l19 21h218l109 11q49 -14 49 -32v-42l-59 -339l10 -64q-17 -158 -50 -158l-10 10h-10q-79 -373 -79 -624v-349 q-69 -46 -69 -106q40 -74 50 -170h-10l10 -10v-32q0 -100 -109 -148q-129 32 -129 127l69 138l-39 42l10 53h-40l-39 10l-79 -53q-20 0 -20 85h-10q-36 -127 -59 -127q-20 0 -20 64h-20l-39 -11q-24 0 -79 64l-89 21q-81 0 -168 -96q-115 -8 -198 -63l-99 74h-99l-10 11h-10 q-17 -127 -39 -127q-20 0 -30 95l10 53q-168 197 -168 370zM460 15v-32h10l19 22l-9 10h-20zM598 1507h10v32h-10v-32zM608 1560h10v43h-10v-43zM1122 132l20 -22v22h-20zM1172 1169l19 -21l10 53v31q-29 -10 -29 -63zM1419 -165v-21l39 -10v63h-10z" />
<glyph unicode="&#xda;" horiz-adv-x="1501" />
<glyph unicode="&#xdb;" horiz-adv-x="1780" d="M15 396v53q87 762 168 984q30 65 79 318l10 10h40l9 -10l10 10h99l10 -10q39 21 109 21h69q17 0 30 -53l-10 -32l29 -84q0 -89 -98 -265q0 -156 -99 -328q0 -129 -50 -286l10 -10q-29 -160 -29 -275v-11q0 -203 257 -265h19q305 36 366 64l10 -11l49 11l10 -11l30 11v63 l10 96l-10 10l30 424l-10 10v11l39 148v63h-10l-29 -10v10l10 53q-40 17 -40 74q0 64 129 191q39 103 39 180l-10 32h10l-10 10v32q0 21 50 21v53l19 21h218l109 11q49 -14 49 -32v-42l-59 -339l10 -64q-17 -158 -50 -158l-10 10h-10q-79 -373 -79 -624v-349 q-69 -46 -69 -106q40 -74 50 -170h-10l10 -10v-32q0 -100 -109 -148q-129 32 -129 127l69 138l-39 42l10 53h-40l-39 10l-79 -53q-20 0 -20 85h-10q-36 -127 -59 -127q-20 0 -20 64h-20l-39 -11q-24 0 -79 64l-89 21q-81 0 -168 -96q-115 -8 -198 -63l-99 74h-99l-10 11h-10 q-17 -127 -39 -127q-20 0 -30 95l10 53q-168 197 -168 370zM460 15v-32h10l19 22l-9 10h-20zM598 1507h10v32h-10v-32zM608 1560h10v43h-10v-43zM1122 132l20 -22v22h-20zM1172 1169l19 -21l10 53v31q-29 -10 -29 -63zM1419 -165v-21l39 -10v63h-10z" />
<glyph unicode="&#xdc;" horiz-adv-x="1794" d="M15 396v53q87 762 168 984q30 65 79 318l10 10h40l9 -10l10 10h99l10 -10q39 21 109 21h69q17 0 30 -53l-10 -32l29 -84q0 -89 -98 -265q0 -156 -99 -328q0 -129 -50 -286l10 -10q-29 -160 -29 -275v-11q0 -203 257 -265h19q305 36 366 64l10 -11l49 11l10 -11l30 11v63 l10 96l-10 10l30 424l-10 10v11l39 148v63h-10l-29 -10v10l10 53q-40 17 -40 74q0 64 129 191q39 103 39 180l-10 32h10l-10 10v32q0 21 50 21v53l19 21h218l109 11q49 -14 49 -32v-42l-59 -339l10 -64q-17 -158 -50 -158l-10 10h-10q-79 -373 -79 -624v-349 q-69 -46 -69 -106q40 -74 50 -170h-10l10 -10v-32q0 -100 -109 -148q-129 32 -129 127l69 138l-39 42l10 53h-40l-39 10l-79 -53q-20 0 -20 85h-10q-36 -127 -59 -127q-20 0 -20 64h-20l-39 -11q-24 0 -79 64l-89 21q-81 0 -168 -96q-115 -8 -198 -63l-99 74h-99l-10 11h-10 q-17 -127 -39 -127q-20 0 -30 95l10 53q-168 197 -168 370zM460 15v-32h10l19 22l-9 10h-20zM598 1507h10v32h-10v-32zM608 1560h10v43h-10v-43zM1122 132l20 -22v22h-20zM1172 1169l19 -21l10 53v31q-29 -10 -29 -63zM1419 -165v-21l39 -10v63h-10z" />
<glyph unicode="&#xdd;" horiz-adv-x="1233" />
<glyph unicode="&#xde;" horiz-adv-x="1120" />
<glyph unicode="&#xdf;" horiz-adv-x="1251" />
<glyph unicode="&#xe0;" horiz-adv-x="1206" d="M0 35v8q0 51 197 486q49 188 314 471l171 164l-46 212l124 16q138 0 138 -55q0 -85 79 -282l91 -385l72 -596l7 -8v-23q-22 -63 -33 -63h-46l-177 -55l-13 71h7l-59 486h-33l-131 -16l-59 16h-20q-157 0 -157 -47q0 -28 -118 -282l-7 -24l14 -16q-45 -101 -66 -110 l-85 16h-66l-72 -8q-26 12 -26 24zM380 1643l27 82l-4 5q14 78 31 78l172 -69l5 5h5q280 -92 357 -92l32 -32q-49 -60 -59 -106v-41q0 -11 -36 -14q-279 69 -516 165zM518 600q35 -32 59 -32h52l7 -8l6 8h66l72 8l7 -8l26 8q0 136 -79 306q-216 -238 -216 -282z" />
<glyph unicode="&#xe1;" horiz-adv-x="922" />
<glyph unicode="&#xe2;" horiz-adv-x="1206" d="M0 35v8q0 51 197 486q49 188 314 471l171 164l-46 212l124 16q138 0 138 -55q0 -85 79 -282l91 -385l72 -596l7 -8v-23q-22 -63 -33 -63h-46l-177 -55l-13 71h7l-59 486h-33l-131 -16l-59 16h-20q-157 0 -157 -47q0 -28 -118 -282l-7 -24l14 -16q-45 -101 -66 -110 l-85 16h-66l-72 -8q-26 12 -26 24zM276 1439q0 26 31 27q137 53 257 164q84 74 84 98q-13 6 -13 33v6q0 18 129 33l4 5h31q92 -169 164 -213q77 -87 182 -148l9 -16l-4 -6l4 -5v-6l-13 -22l-27 6l-137 -33q-7 15 -156 131l-75 77q-170 -146 -270 -164l-23 -11l-4 -6h-22 l-14 11l-17 -5l-58 11l-4 -6h-5l-18 6l-13 -11q-22 16 -22 44zM518 600q35 -32 59 -32h52l7 -8l6 8h66l72 8l7 -8l26 8q0 136 -79 306q-216 -238 -216 -282z" />
<glyph unicode="&#xe3;" horiz-adv-x="922" />
<glyph unicode="&#xe4;" horiz-adv-x="1199" d="M0 35v8q0 51 197 486q49 188 314 471l171 164l-46 212l124 16q138 0 138 -55q0 -85 79 -282l91 -385l72 -596l7 -8v-23q-22 -63 -33 -63h-46l-177 -55l-13 71h7l-59 486h-33l-131 -16l-59 16h-20q-157 0 -157 -47q0 -28 -118 -282l-7 -24l14 -16q-45 -101 -66 -110 l-85 16h-66l-72 -8q-26 12 -26 24zM356 1637h5l-5 5v43q23 48 249 64l19 -16q-19 -50 -19 -156h-5l5 -16q0 -31 -93 -37v6l-132 -49h-9l-10 11v118zM518 600q35 -32 59 -32h52l7 -8l6 8h66l72 8l7 -8l26 8q0 136 -79 306q-216 -238 -216 -282zM878 1518l10 65l-5 5 q4 140 20 140h97l24 5v-5l6 5h29q56 0 63 -27v-16q-14 -20 -24 -70h-4l4 -4v-6q-10 -11 -10 -49q-14 -43 -24 -43h-34q-94 0 -142 -10z" />
<glyph unicode="&#xe5;" horiz-adv-x="922" />
<glyph unicode="&#xe6;" horiz-adv-x="1454" />
<glyph unicode="&#xe7;" horiz-adv-x="1512" d="M7 765v35q0 75 79 238q72 147 137 211l122 123q0 79 65 79q208 150 474 150h29q409 0 554 -273l-93 -220q0 -70 -22 -70q-33 0 -101 106q-137 105 -388 105q-125 0 -266 -61l14 -62q-47 0 -230 -273l-22 -193q28 -157 87 -203q28 -35 86 -53q0 -96 288 -96l93 -9l7 -9 l8 9h64q85 0 144 132h36q118 -62 151 -97q86 0 86 -79q-35 -127 -136 -211l-79 -53q-187 -44 -259 -44h-58l-7 9l-7 -9q-271 40 -309 97q-303 121 -475 484q-72 170 -72 237zM464 -268q85 -52 152 -52q66 0 94.5 21.5t28.5 66.5t-49 64q-40 16 -102 16q-16 0 -34 -2l48 176 h63l-37 -104q32 4 62 5q86 0 134 -40.5t48 -113.5q0 -76 -58.5 -120.5t-160.5 -44.5q-109 0 -189 32v96z" />
<glyph unicode="&#xe8;" horiz-adv-x="1318" d="M0 -4l23 36l-8 45v26l8 9l-8 9q12 152 67 152h75q22 0 22 187v80q-90 18 -90 36q60 160 68 232l14 18l-7 8q20 0 52 179l-8 8h-208v36l68 134l-8 27l8 35l-8 10q0 107 52 107l745 -10l60 10l21 -10l284 36l7 -9v-8q0 -63 -15 -63l8 -9q-11 -121 -31 -143l8 -8v-36l-8 -9 l8 -9v-9q0 -62 -164 -62q-123 -18 -431 -18l-23 -9l-30 9h-75l-6 -45v-63l6 -62h8l30 9l7 -9l89 9h53l7 -9l8 9h8l14 -18l-37 -231v-71q0 -19 -59 -28l-8 9l-52 -9h-68q-21 0 -21 -142v-62l625 -36q122 9 179 45q37 -16 37 -45l-97 -313l-126 -26q-476 18 -544 36l-22 -10 l-31 10l-29 -10h-15v10l-409 -18l-23 36v17zM291 1642l28 83l-5 5q15 79 32 79l175 -70l5 5h5q285 -93 364 -93l32 -33q-50 -60 -60 -107v-42q0 -11 -37 -13q-283 70 -525 167z" />
<glyph unicode="&#xe9;" horiz-adv-x="1385" d="M7 1v18l23 36l-7 44v27l7 8l-7 9q11 152 68 152h77q22 0 22 186v80q-92 18 -92 36q62 160 70 231l14 18l-8 9q22 0 54 177l-8 9h-213v36l69 133l-8 27l8 35l-8 10q0 106 54 106l762 -9l61 9l22 -9l290 36l8 -9v-9q0 -62 -16 -62l8 -10q-11 -120 -31 -141l8 -9v-36l-8 -9 l8 -8v-9q0 -62 -168 -62q-126 -19 -441 -19l-24 -8l-30 8h-77l-6 -44v-63l6 -62h8l31 9l7 -9l92 9h53l8 -9l8 9h7l15 -17l-38 -231v-71q0 -19 -60 -27l-8 8l-54 -8h-69q-22 0 -22 -142v-62l640 -36q125 9 183 44q38 -15 38 -44l-99 -312l-130 -26q-486 17 -556 36l-22 -10 l-32 10l-30 -10h-15v10l-419 -19zM289 1565q0 14 130 51q317 104 450 182l36 4l16 -16v-23l-5 -4q5 -36 21 -46l-6 -20l11 -42q-147 -86 -554 -214q0 -8 -37 -8q-16 1 -46 105q-9 0 -16 31z" />
<glyph unicode="&#xea;" horiz-adv-x="1348" d="M8 3l23 35l-8 44v26l8 8l-8 9q12 149 67 149h76q22 0 22 183v80q-90 17 -90 35q60 157 68 227l14 18l-8 8q21 0 53 175l-8 9h-209v35l68 131l-8 26l8 35l-8 9q0 105 53 105l748 -9l60 9l22 -9l284 35l8 -8v-9q0 -61 -15 -61l7 -10q-10 -118 -30 -139l8 -9v-35l-8 -9l8 -8 v-9q0 -61 -165 -61q-124 -18 -433 -18l-23 -9l-30 9h-75l-7 -44v-61l7 -61h7l31 8l6 -8l90 8h53l7 -8l8 8h8l14 -17l-37 -227v-70q0 -18 -59 -27l-8 9l-53 -9h-67q-22 0 -22 -139v-61l628 -36q122 9 180 44q37 -15 37 -44l-97 -306l-127 -26q-478 17 -547 35l-22 -9l-30 9 l-30 -9h-15v9l-411 -18l-23 36v17zM157 1493q0 21 33 22q149 45 280 139q91 63 91 83q-14 5 -14 28v5q0 15 139 27l5 5h34q100 -143 178 -181q84 -73 198 -124l9 -14l-4 -5l4 -5v-3l-14 -19l-29 4l-150 -27q-6 12 -168 110l-82 65q-184 -124 -293 -138l-24 -10l-5 -4h-25 l-14 9l-19 -5l-62 10l-5 -5h-6l-19 5l-14 -10q-24 15 -24 38z" />
<glyph unicode="&#xeb;" horiz-adv-x="1348" d="M0 0v18l23 35l-8 44v25l8 9l-8 9q12 148 68 148h76q22 0 22 183v79q-91 17 -91 35q61 157 69 227l14 17l-8 9q21 0 53 174l-8 9h-210v35l68 131l-7 26l7 35l-7 9q0 105 52 105l753 -9l61 9l22 -9l286 35l8 -9v-8q0 -61 -16 -61l8 -10q-11 -118 -31 -139l8 -9v-35l-8 -8 l8 -9v-9q0 -61 -165 -61q-125 -18 -437 -18l-23 -8l-30 8h-75l-7 -43v-61l7 -61h7l31 8l7 -8l90 8h53l8 -8l7 8h8l14 -17l-37 -227v-69q0 -18 -60 -27l-7 9l-53 -9h-68q-23 0 -23 -139v-61l633 -35q123 8 181 43q37 -15 37 -43l-98 -306l-128 -26q-480 17 -550 35l-22 -9 l-30 9l-30 -9h-16v9l-413 -18zM214 1615h5l-5 5v43q23 48 249 64l19 -16q-19 -50 -19 -156h-5l5 -16q0 -31 -93 -37v6l-132 -49h-9l-10 11v118zM736 1496l10 65l-5 5q4 140 20 140h97l24 5v-5l6 5h29q56 0 63 -27v-16q-14 -20 -24 -70h-4l4 -4v-6q-10 -11 -10 -49 q-14 -43 -24 -43h-34q-94 0 -142 -10z" />
<glyph unicode="&#xec;" horiz-adv-x="514" />
<glyph unicode="&#xed;" horiz-adv-x="514" />
<glyph unicode="&#xee;" horiz-adv-x="730" d="M-29 1570q0 22 26 23q114 45 214 141q69 64 69 84q-11 5 -11 28v5q0 16 107 28l3 5h27q76 -146 136 -183q64 -75 151 -127l7 -14l-3 -5l3 -5v-4l-11 -19l-22 5l-114 -28q-5 12 -129 112l-63 66q-141 -126 -224 -141l-18 -9l-4 -5h-19l-11 10l-15 -5l-47 9l-4 -4h-4l-15 4 l-11 -9q-18 14 -18 38zM45 1149q46 256 74 286h56l18 16h93l49 8l93 -16l31 8h24l106 8q37 -36 37 -80q-43 -6 -68 -238l-6 -8h-74l-6 -8l-7 -24h-6l6 -8v-8l-18 -151l6 -9v-31l-6 -8l6 -8l-6 -55v-17l6 -23l-6 -40v-16l6 -135l-6 -72l12 -103l-6 -40l6 -80l75 16l30 -24 q-59 -302 -81 -302h-5l-74 -8l-99 16l-38 -16l-36 8l-137 -24q-36 10 -36 24v8q41 278 74 278q86 16 86 32v48l-13 55h7l-7 9v55l7 8l-7 8v16l7 24l-7 39v64l-6 88l6 32l-6 8l6 39l-6 40l13 151l-7 25l7 7h6l-6 8v8l12 96h-6l-117 -16q-56 8 -56 32z" />
<glyph unicode="&#xef;" horiz-adv-x="678" d="M5 1667h5l-5 5v43q23 48 249 64l19 -16q-19 -50 -19 -156h-5l5 -16q0 -31 -93 -37v6l-132 -49h-10l-9 11v118zM15 1127q45 256 74 286h56l18 16h93l49 8l93 -16l31 8h24l106 8q37 -36 37 -80q-43 -6 -68 -238l-7 -8h-73l-7 -8l-6 -24h-6l6 -8v-8l-19 -151l7 -9v-31l-7 -8 l7 -8l-7 -55v-17l7 -23l-7 -40v-16l7 -135l-7 -72l13 -103l-6 -40l6 -80l74 16l31 -24q-59 -302 -81 -302h-5l-75 -8l-98 16l-38 -16l-37 8l-136 -24q-37 10 -37 24v8q41 278 75 278q86 16 86 32v48l-13 55h6l-6 9v55l6 8l-6 8v16l6 24l-6 39v64l-6 88l6 32l-6 8l6 39l-6 40 l12 151l-6 25l6 7h7l-7 8v8l13 96h-6l-118 -16q-55 8 -55 32zM401 1548l9 65l-4 5q4 140 20 140h97l24 5v-5l6 5h29q55 0 63 -27v-16q-14 -20 -24 -70h-5l5 -4v-6q-11 -11 -11 -49q-13 -43 -24 -43h-33q-94 0 -143 -10z" />
<glyph unicode="&#xf0;" horiz-adv-x="1139" />
<glyph unicode="&#xf1;" horiz-adv-x="1108" />
<glyph unicode="&#xf2;" horiz-adv-x="1010" />
<glyph unicode="&#xf3;" horiz-adv-x="1010" />
<glyph unicode="&#xf4;" horiz-adv-x="1318" d="M7 683l13 99l-6 7v7q0 147 130 361q227 261 299 269l130 63v-7l7 7h6q218 0 351 -99q158 -79 267 -297l32 -155h-6l13 -57l-26 -120l7 -36v-99l-7 -7l7 -6v-8q0 -108 -85 -275q-194 -346 -325 -346q-69 -27 -241 -36q-153 14 -286 71q-130 63 -202 197q-78 318 -78 467z M105 520q4 -56 13 -56l45 -85q104 -100 345 -148l32 7h7l65 -7l13 14h26q247 0 423 360q44 58 78 198l-20 57l7 7q-87 140 -209 233q-101 64 -220 99l-7 -7l-19 7q-129 0 -274 -99q0 -14 -71 -71l-104 -120q-130 -191 -130 -389zM201 1530q0 21 33 22q149 45 280 139 q91 63 91 83q-14 5 -14 28v5q0 15 139 27l5 5h34q100 -143 178 -181q84 -73 198 -124l9 -14l-4 -5l4 -5v-3l-14 -19l-29 4l-150 -27q-6 12 -168 110l-82 65q-184 -124 -293 -138l-24 -10l-5 -4h-25l-14 9l-19 -5l-62 10l-5 -5h-6l-19 5l-14 -10q-24 15 -24 38zM489 803 q0 32 45 57l6 -7h7q19 2 45 35l27 8v-8l6 8h6q49 -27 72 -72v-49l13 -56l-6 -7q6 -95 19 -107v-28q-58 -85 -130 -85q-72 21 -72 106l-12 64l6 7q-11 0 -26 134h-6z" />
<glyph unicode="&#xf5;" horiz-adv-x="1010" />
<glyph unicode="&#xf6;" horiz-adv-x="1281" d="M7 708l12 102l-5 8v6q0 153 127 373q224 271 294 279l128 65v-8l7 8h5q215 0 346 -102q155 -82 262 -307l31 -161h-5l12 -58l-26 -124l7 -37v-103l-7 -7l7 -7v-7q0 -112 -83 -285q-191 -358 -320 -358q-67 -28 -236 -37q-151 14 -281 73q-127 65 -199 204 q-76 329 -76 483zM103 540q4 -58 13 -58l45 -88q102 -103 338 -154l32 8h6l64 -8l13 15h25q243 0 416 373q43 59 76 204l-19 59l7 7q-86 145 -205 241q-99 66 -217 102l-6 -7l-19 7q-127 0 -269 -102q0 -14 -70 -73l-102 -124q-128 -198 -128 -402zM289 1711h5l-5 5v43 q23 48 249 64l19 -16q-19 -50 -19 -156h-5l5 -16q0 -31 -93 -37v6l-132 -49h-9l-10 11v118zM480 832q0 33 45 59l6 -8h6q19 3 45 37l26 8v-8l6 8h6q48 -28 71 -74v-51l12 -58l-6 -8q6 -97 20 -109v-30q-58 -88 -128 -88q-71 22 -71 110l-12 66l5 7q-10 0 -24 139h-7z M811 1592l10 65l-5 5q4 140 20 140h97l24 5v-5l6 5h29q56 0 63 -27v-16q-14 -20 -24 -70h-4l4 -4v-6q-10 -11 -10 -49q-14 -43 -24 -43h-34q-94 0 -142 -10z" />
<glyph unicode="&#xf7;" d="M87 647v140h839l1 -1v-139h-840zM382 377q0 15 16 31l82 84q15 14 29 14q13 0 31 -16l80 -86q12 -16 12 -29q0 -15 -14 -31l-80 -88q-20 -20 -29 -20q-16 0 -29 14l-88 101q-10 13 -10 26zM382 1070q0 15 16 31l82 84q15 14 29 14q13 0 31 -16l80 -86q12 -16 12 -29 q0 -15 -14 -31l-80 -88q-20 -20 -29 -20q-16 0 -29 14l-88 101q-10 13 -10 26z" />
<glyph unicode="&#xf8;" horiz-adv-x="1010" />
<glyph unicode="&#xf9;" horiz-adv-x="1497" d="M0 298v27l7 10l-7 9v9l31 184l-9 8l39 184l-8 10v9q53 340 145 643l-8 8v37l31 37h8l7 -10l7 10h92l7 -10q35 19 100 19h45l16 -19v-17l-137 -616l7 -8l-60 -349l7 -10l-15 -138q0 -183 198 -247l335 55l23 -9l15 64v18h-7l7 64v83l7 10l-7 8v9q13 165 22 165l-7 10v9 l31 184l-8 9l107 496l-8 9v9q20 156 46 156l60 9l107 -18l69 18q53 -15 53 -45l-76 -368l8 -9v-10l-77 -339l8 -10v-8q-23 -129 -31 -294l8 -37l-8 -137l8 -55l-8 -28l8 -10v-8q0 -55 -38 -55l-221 -74h-23q-24 0 -37 101h-8l-38 -9v9l-199 -55h-106q-25 -19 -205 -55 l-77 19l-7 -10h-8q-221 101 -221 349zM440 1672l28 83l-5 5q15 79 32 79l175 -70l5 5h5q285 -93 364 -93l32 -33q-50 -60 -60 -107v-42q0 -11 -37 -13q-283 70 -525 167z" />
<glyph unicode="&#xfa;" horiz-adv-x="1059" />
<glyph unicode="&#xfb;" horiz-adv-x="1489" d="M0 290v26l8 9l-8 9v9l31 180l-8 8l38 179l-7 9v9q54 333 146 628l-8 8v36l32 36h7l8 -9l7 9h93l7 -9q35 18 101 18h45l16 -18v-18l-138 -600l7 -9l-61 -340l8 -9l-16 -135q0 -178 200 -241l339 53l24 -9l15 63v17h-8l8 63v81l7 9l-7 9v9q13 161 22 161l-7 9v9l31 179 l-8 10l108 483l-8 9v9q20 152 47 152l61 9l107 -18l70 18q54 -14 54 -44l-77 -359l8 -9v-9l-77 -332l7 -9v-8q-22 -126 -31 -287l9 -36l-9 -134l9 -54l-9 -27l9 -9v-8q0 -54 -39 -54l-224 -72h-23q-25 0 -38 98h-7l-39 -9v9l-201 -53h-107q-26 -18 -208 -54l-77 18l-8 -9h-7 q-224 98 -224 341zM299 1538q0 21 33 22q149 45 280 139q91 63 91 83q-14 5 -14 28v5q0 15 139 27l5 5h34q100 -143 178 -181q84 -73 198 -124l9 -14l-4 -5l4 -5v-3l-14 -19l-29 4l-150 -27q-6 12 -168 110l-82 65q-184 -124 -293 -138l-24 -10l-5 -4h-25l-14 9l-19 -5 l-62 10l-5 -5h-6l-19 5l-14 -10q-24 15 -24 38z" />
<glyph unicode="&#xfc;" horiz-adv-x="1489" d="M0 302v27l8 9l-8 10v9l32 186l-9 8l40 186l-7 9v10q55 344 150 649l-7 8v38l32 37h8l7 -10l8 10h96l7 -10q36 19 105 19h46l17 -19v-18l-143 -621l7 -9l-63 -352l8 -10l-16 -139q0 -185 207 -250l349 56l25 -9l15 65v17h-7l7 65v84l8 10l-8 8v10q14 166 24 166l-8 10v9 l32 186l-8 9l111 500l-8 10v9q21 157 48 157l63 10l111 -19l72 19q56 -15 56 -46l-80 -371l9 -10v-9l-80 -343l8 -10v-8q-24 -130 -32 -297l8 -37l-8 -139l8 -55l-8 -29l8 -9v-9q0 -55 -39 -55l-231 -75h-25q-25 0 -38 102h-8l-40 -9v9l-208 -55h-111q-26 -19 -214 -56 l-80 19l-7 -10h-8q-231 102 -231 353zM467 1742h5l-5 5v43q23 48 249 64l19 -16q-19 -50 -19 -156h-5l5 -16q0 -31 -93 -37v6l-132 -49h-10l-9 11v118zM929 1608l9 65l-4 5q4 140 20 140h97l24 5v-5l6 5h29q55 0 63 -27v-16q-14 -20 -24 -70h-5l5 -4v-6q-11 -11 -11 -49 q-13 -43 -24 -43h-33q-94 0 -143 -10z" />
<glyph unicode="&#xfd;" horiz-adv-x="868" />
<glyph unicode="&#xfe;" horiz-adv-x="1010" />
<glyph unicode="&#xff;" horiz-adv-x="868" />
<glyph unicode="&#x2c6;" horiz-adv-x="1024" d="M221 1079l232 355h118l232 -355h-58l-233 216l-233 -216h-58z" />
<glyph unicode="&#x2dc;" horiz-adv-x="1024" d="M234 1132q19 106 68 158.5t129 52.5q46 -1 113 -24q64 -23 112 -23h4q36 0 58 20t36 66h54q-20 -103 -68.5 -154t-126.5 -51h-4q-50 0 -113 23q-66 24 -114 24q-39 0 -60.5 -20.5t-33.5 -71.5h-54z" />
<glyph unicode="&#x2000;" horiz-adv-x="942" />
<glyph unicode="&#x2001;" horiz-adv-x="1884" />
<glyph unicode="&#x2002;" horiz-adv-x="942" />
<glyph unicode="&#x2003;" horiz-adv-x="1884" />
<glyph unicode="&#x2004;" horiz-adv-x="628" />
<glyph unicode="&#x2005;" horiz-adv-x="471" />
<glyph unicode="&#x2006;" horiz-adv-x="314" />
<glyph unicode="&#x2007;" horiz-adv-x="314" />
<glyph unicode="&#x2008;" horiz-adv-x="235" />
<glyph unicode="&#x2009;" horiz-adv-x="376" />
<glyph unicode="&#x200a;" horiz-adv-x="104" />
<glyph unicode="&#x2010;" horiz-adv-x="670" d="M68 682v24l4 4l-4 4l12 68l-4 16q0 40 72 40l48 4l36 -4l16 4l36 -4h48l4 -4l12 8l16 -4l84 4v-4l4 4h12l4 -4l4 4h64q22 0 32 -20l-16 -56l4 -4v-4q-12 -20 -12 -68l8 -8q0 -12 -48 -12v4l-4 -4l-40 8l-12 -4l-136 -4l-4 4h-4l-4 -4l-40 4h-12l-24 -4l-44 8l-96 -4h-8z " />
<glyph unicode="&#x2011;" horiz-adv-x="670" d="M68 682v24l4 4l-4 4l12 68l-4 16q0 40 72 40l48 4l36 -4l16 4l36 -4h48l4 -4l12 8l16 -4l84 4v-4l4 4h12l4 -4l4 4h64q22 0 32 -20l-16 -56l4 -4v-4q-12 -20 -12 -68l8 -8q0 -12 -48 -12v4l-4 -4l-40 8l-12 -4l-136 -4l-4 4h-4l-4 -4l-40 4h-12l-24 -4l-44 8l-96 -4h-8z " />
<glyph unicode="&#x2012;" horiz-adv-x="670" d="M68 682v24l4 4l-4 4l12 68l-4 16q0 40 72 40l48 4l36 -4l16 4l36 -4h48l4 -4l12 8l16 -4l84 4v-4l4 4h12l4 -4l4 4h64q22 0 32 -20l-16 -56l4 -4v-4q-12 -20 -12 -68l8 -8q0 -12 -48 -12v4l-4 -4l-40 8l-12 -4l-136 -4l-4 4h-4l-4 -4l-40 4h-12l-24 -4l-44 8l-96 -4h-8z " />
<glyph unicode="&#x2013;" horiz-adv-x="1108" d="M56 419v120h996v-120h-996z" />
<glyph unicode="&#x2014;" horiz-adv-x="2048" d="M0 419v120h2048v-120h-2048z" />
<glyph unicode="&#x2018;" horiz-adv-x="557" d="M186 1233q0 109 71 226.5t139 117.5v-43q-73 -43 -87 -190q0 -119 129 -161v-42l-119 -125q-44 0 -88.5 65.5t-44.5 151.5z" />
<glyph unicode="&#x2019;" horiz-adv-x="648" d="M1 1014v26q148 70 191 203q66 101 95 326v18l-7 52q9 44 20 44q62 -5 62 -18l7 9h6l7 -9l7 9h7l41 -9l7 9h6l21 -9l75 9q15 0 20 -132q0 -123 -122 -352q-100 -176 -300 -176l-75 -9l-20 9l-41 -9z" />
<glyph unicode="&#x201a;" horiz-adv-x="557" d="M119 114v42l119 125q44 0 88.5 -65.5t44.5 -151.5q0 -109 -71 -226.5t-139 -117.5v43q73 43 87 190q0 119 -129 161z" />
<glyph unicode="&#x201c;" horiz-adv-x="910" d="M186 1233q0 109 71 226.5t139 117.5v-43q-73 -43 -87 -190q0 -119 129 -161v-42l-119 -125q-44 0 -88.5 65.5t-44.5 151.5zM539 1233q0 109 71 226.5t139 117.5v-43q-73 -43 -87 -190q0 -119 129 -161v-42l-119 -125q-44 0 -88.5 65.5t-44.5 151.5z" />
<glyph unicode="&#x201d;" horiz-adv-x="910" d="M119 1410v42l119 125q44 0 88.5 -65.5t44.5 -151.5q0 -109 -71 -226.5t-139 -117.5v43q73 43 87 190q0 119 -129 161zM472 1410v42l119 125q44 0 88.5 -65.5t44.5 -151.5q0 -109 -71 -226.5t-139 -117.5v43q73 43 87 190q0 119 -129 161z" />
<glyph unicode="&#x201e;" horiz-adv-x="910" d="M119 114v42l119 125q44 0 88.5 -65.5t44.5 -151.5q0 -109 -71 -226.5t-139 -117.5v43q73 43 87 190q0 119 -129 161zM472 114v42l119 125q44 0 88.5 -65.5t44.5 -151.5q0 -109 -71 -226.5t-139 -117.5v43q73 43 87 190q0 119 -129 161z" />
<glyph unicode="&#x2022;" horiz-adv-x="1024" d="M216 718q0 123 87 209t210 86q122 0 208.5 -86.5t86.5 -208.5t-87.5 -209.5t-209.5 -87.5q-123 0 -209 87t-86 210z" />
<glyph unicode="&#x2026;" horiz-adv-x="2048" d="M129 136q0 15 16 31l82 84q15 14 29 14q13 0 31 -16l80 -86q12 -16 12 -29q0 -15 -14 -31l-80 -88q-20 -20 -29 -20q-16 0 -29 14l-88 101q-10 13 -10 26zM812 136q0 15 16 31l82 84q15 14 29 14q13 0 31 -16l80 -86q12 -16 12 -29q0 -15 -14 -31l-80 -88 q-20 -20 -29 -20q-16 0 -29 14l-88 101q-10 13 -10 26zM1495 136q0 15 16 31l82 84q15 14 29 14q13 0 31 -16l80 -86q12 -16 12 -29q0 -15 -14 -31l-80 -88q-20 -20 -29 -20q-16 0 -29 14l-88 101q-10 13 -10 26z" />
<glyph unicode="&#x202f;" horiz-adv-x="376" />
<glyph unicode="&#x2039;" horiz-adv-x="631" d="M174 479l342 303h14v-37l-205 -266l205 -266v-37h-14z" />
<glyph unicode="&#x203a;" horiz-adv-x="631" d="M101 176v37l205 266l-205 266v37h14l342 -303l-342 -303h-14z" />
<glyph unicode="&#x205f;" horiz-adv-x="471" />
<glyph unicode="&#x20ac;" d="M-44 653l17 60h87v29q0 16 1 31h-71l17 60h58q14 145 76 281q81 178 226 274t298 96q43 0 87 -8q40 -10 82 -29q8 -6 16 -6q20 0 34 45h41l84 -281l-40 -1q-49 134 -138 178q-43 22 -81 32v3q-50 16 -101 16q-17 0 -34 -2q-120 -12 -226 -113.5t-157 -273.5 q-32 -104 -39 -211h706l-17 -60h-692q0 -30 2 -60h674l-17 -60h-652q17 -158 83 -298q74 -157 193 -236q102 -68 216 -69q186 3 256 91q74 91 74 185h48v-143q0 -70 -111 -127q-105 -54 -267 -56q-181 0 -325.5 98t-223.5 274q-62 135 -76 281h-108z" />
<glyph unicode="&#x2122;" horiz-adv-x="1497" />
<glyph unicode="&#x25fc;" horiz-adv-x="1580" d="M0 0v1580h1580v-1580h-1580z" />
</font>
</defs>
</svg>
